<svg xmlns="http://www.w3.org/2000/svg" xmlns:xlink="http://www.w3.org/1999/xlink" viewBox="0 0 80 80"><defs><style>.cls-1{fill:#fff;}.cls-2{fill:#e5f3f2;}.cls-3,.cls-5{fill:#b2dcd7;}.cls-4,.cls-6{fill:none;}.cls-4,.cls-5,.cls-6{stroke:#00684d;stroke-miterlimit:10;stroke-width:2px;}.cls-6{stroke-linecap:round;}</style><symbol id="カスタマーサポート" data-name="カスタマーサポート" viewBox="0 0 80 80"><rect class="cls-1" width="80" height="80"/><circle class="cls-2" cx="40.5" cy="45.5" r="24"/><path class="cls-1" d="M60.18,55.76,54.5,54.5l-4-4-2,2v-7h-17v7l-2-2-4,4-5.68,1.26c-5.15,1.12-6,4.78-7.32,10.74,0,0,10,5,28,5s27-5,27-5C66.21,60.54,65.33,56.88,60.18,55.76Z"/><polygon class="cls-3" points="29.5 50.5 25.5 54.5 35.5 64.5 39.5 60.5 29.5 50.5"/><polygon class="cls-3" points="50.5 50.5 54.5 54.5 44.5 64.5 40.5 60.5 50.5 50.5"/><path class="cls-1" d="M40,8.5c-9.11,0-16.5,8-16.5,15.33V30.5s4,6,17,6,16-6,16-6V23.83C56.5,16.47,49.11,8.5,40,8.5Z"/><path class="cls-1" d="M35.46,21.5c-3,0-7.06,4-8,7v7a17.41,17.41,0,0,0,8.08,14.7l.27.14a8.4,8.4,0,0,0,8.55,0l.14-.09c5-3,8-8.95,8-14.73V32.3C47,31.28,39.08,26.51,35.46,21.5Z"/><path class="cls-4" d="M56.5,36.5V23.83C56.5,16.47,49.11,8.5,40,8.5s-16.5,8-16.5,15.33V34.5"/><line class="cls-4" x1="31.5" y1="46.65" x2="31.5" y2="52.5"/><line class="cls-4" x1="48.5" y1="46.77" x2="48.5" y2="52.5"/><polygon class="cls-4" points="50.5 50.5 40.5 60.5 44.5 64.5 54.5 54.5 50.5 50.5"/><polygon class="cls-4" points="29.5 50.5 39.5 60.5 35.5 64.5 25.5 54.5 29.5 50.5"/><path class="cls-5" d="M22.81,38.5h.69v-10h-.69a4.58,4.58,0,0,0-4.31,4.34v1.39A4.51,4.51,0,0,0,22.81,38.5Z"/><path class="cls-5" d="M56.5,28.5h.69a4.31,4.31,0,0,1,4.31,4.31v1.42a4.27,4.27,0,0,1-4.27,4.27H56.5a0,0,0,0,1,0,0v-10A0,0,0,0,1,56.5,28.5Z"/><path class="cls-6" d="M33.5,16.5c0,6.82,13.22,15.53,20.44,16"/><path class="cls-4" d="M52.5,32.3v3.2c0,5.78-3,11.77-8,14.73l-.14.09a8.4,8.4,0,0,1-8.55,0l-.27-.14A17.41,17.41,0,0,1,27.5,35.5v-7c.91-3,4.9-7,8-7"/><path class="cls-4" d="M43.5,44.5h8a5.16,5.16,0,0,0,5-5v-2"/><path class="cls-5" d="M41.5,46.5h-3a2,2,0,0,1-2-2v-1a2,2,0,0,1,2-2h3a2,2,0,0,1,2,2v1A2,2,0,0,1,41.5,46.5Z"/><path class="cls-6" d="M25.5,54.5l-5.68,1.26c-5.15,1.12-6,4.78-7.32,10.74"/><path class="cls-6" d="M54.5,54.5l5.68,1.26c5.15,1.12,6,4.78,7.32,10.74"/></symbol></defs><title>job_ico_09</title><g id="コンテンツ"><use width="80" height="80" xlink:href="#カスタマーサポート"/></g></svg>