<svg xmlns="http://www.w3.org/2000/svg" xmlns:xlink="http://www.w3.org/1999/xlink" viewBox="0 0 80 80"><defs><style>.cls-1,.cls-3{fill:#fff;}.cls-2{fill:#e5f3f2;}.cls-3,.cls-4,.cls-5,.cls-6{stroke:#00684d;stroke-width:2px;}.cls-3,.cls-5{stroke-linecap:round;}.cls-3,.cls-4,.cls-5{stroke-miterlimit:10;}.cls-4,.cls-5{fill:none;}.cls-6{fill:#b2dcd7;stroke-linejoin:round;}</style><symbol id="バックエンドエンジニア" data-name="バックエンドエンジニア" viewBox="0 0 80 80"><rect class="cls-1" width="80" height="80"/><circle class="cls-2" cx="41.5" cy="41" r="27" transform="translate(-16.84 41.35) rotate(-45)"/><path class="cls-3" d="M30.5,32h-18a1,1,0,0,1-1-1V12a1,1,0,0,1,1-1h50a1,1,0,0,1,1,1V31a1,1,0,0,1-1,1h-19"/><line class="cls-4" x1="11.5" y1="18" x2="53.5" y2="18"/><line class="cls-4" x1="11.5" y1="25" x2="63.5" y2="25"/><polyline class="cls-4" points="53.5 11 53.5 18 56.5 18 56.5 25"/><line class="cls-4" x1="18.5" y1="11" x2="18.5" y2="18"/><line class="cls-4" x1="25.5" y1="11" x2="25.5" y2="18"/><line class="cls-4" x1="32.5" y1="11" x2="32.5" y2="18"/><line class="cls-4" x1="39.5" y1="11" x2="39.5" y2="18"/><line class="cls-4" x1="46.5" y1="11" x2="46.5" y2="18"/><line class="cls-4" x1="21.5" y1="18" x2="21.5" y2="25"/><line class="cls-4" x1="28.5" y1="18" x2="28.5" y2="25"/><line class="cls-4" x1="35.5" y1="18" x2="35.5" y2="25"/><line class="cls-4" x1="42.5" y1="18" x2="42.5" y2="25"/><line class="cls-4" x1="49.5" y1="18" x2="49.5" y2="25"/><line class="cls-4" x1="22.5" y1="25" x2="22.5" y2="32"/><line class="cls-4" x1="52.5" y1="25" x2="52.5" y2="32"/><path class="cls-1" d="M49.5,41h-2a2.1,2.1,0,0,0-2-2h-2a2.69,2.69,0,0,0-2-1h-2V31.11A2.07,2.07,0,0,0,37.84,29a2,2,0,0,0-2.34,2V46h0a1.53,1.53,0,0,1-2.34-.27l-1.61-2.5c-1.6-2.2-4.05-1-4.05,0,0,0,3,9.68,3.47,10.36.7,1.1,3.53,3.55,3.53,4.41v4h15V59c0-1.35,2-3,2-5V43A2.1,2.1,0,0,0,49.5,41Z"/><path class="cls-4" d="M39.5,38h2a2.69,2.69,0,0,1,2,1h2a2.1,2.1,0,0,1,2,2h2a2.1,2.1,0,0,1,2,2V54c0,2-2,3.65-2,5v3"/><path class="cls-5" d="M34.5,62V58c0-.86-2.83-3.31-3.53-4.41-.44-.68-3.47-10.36-3.47-10.36,0-1,2.45-2.2,4.05,0l1.61,2.5A1.53,1.53,0,0,0,35.5,46h0V31a2,2,0,0,1,2-2h0a2,2,0,0,1,2,2V43"/><line class="cls-5" x1="43.5" y1="39" x2="43.5" y2="43"/><line class="cls-5" x1="47.5" y1="41" x2="47.5" y2="44"/><rect class="cls-6" x="32.5" y="61" width="19" height="8"/><line class="cls-4" x1="35.5" y1="65" x2="38.5" y2="65"/></symbol></defs><title>job_ico_04</title><g id="コンテンツ"><use width="80" height="80" xlink:href="#バックエンドエンジニア"/></g></svg>