<svg xmlns="http://www.w3.org/2000/svg" xmlns:xlink="http://www.w3.org/1999/xlink" viewBox="0 0 80 80"><defs><style>.cls-1,.cls-4{fill:#fff;}.cls-2{fill:#e5f3f2;}.cls-3{fill:none;}.cls-3,.cls-4,.cls-5{stroke:#00684d;stroke-miterlimit:10;stroke-width:2px;}.cls-5,.cls-6{fill:#b2dcd7;}</style><symbol id="データエンジニア" data-name="データエンジニア" viewBox="0 0 80 80"><rect class="cls-1" width="80" height="80"/><circle class="cls-2" cx="37" cy="35.5" r="26.5"/><path class="cls-1" d="M66.5,18h-31a4,4,0,0,0-4,4V52h35a4,4,0,0,0,4-4V22A4,4,0,0,0,66.5,18Z"/><path class="cls-3" d="M31.5,35V22a4,4,0,0,1,4-4h31a4,4,0,0,1,4,4V48a4,4,0,0,1-4,4h-28"/><polygon class="cls-2" points="38.5 29 38.5 45 38.5 46 46.5 46 46.5 29 38.5 29"/><polyline class="cls-3" points="38.5 35 38.5 29 46.5 29 46.5 46 38.5 46 38.5 45"/><rect class="cls-4" x="46.5" y="36" width="8" height="10"/><rect class="cls-5" x="54.5" y="25" width="8" height="21"/><path class="cls-4" d="M20,34.76a4.55,4.55,0,0,0,4.5-4.71V28.48a4.5,4.5,0,1,0-9,0v1.57A4.55,4.55,0,0,0,20,34.76Z"/><path class="cls-5" d="M40.5,38h-23c-4.75,0-8,1.51-8,6v9a4.08,4.08,0,0,0,4,4h13V43h9A5.18,5.18,0,0,0,40.5,38Z"/><rect class="cls-6" x="14.5" y="44" width="12" height="27"/><line class="cls-3" x1="26.5" y1="44" x2="26.5" y2="71"/><line class="cls-3" x1="20.5" y1="55" x2="20.5" y2="71"/><line class="cls-3" x1="14.5" y1="44" x2="14.5" y2="71"/><line class="cls-3" x1="32.5" y1="52" x2="30.5" y2="52"/><line class="cls-3" x1="34.5" y1="52" x2="36.5" y2="52"/></symbol></defs><title>job_ico_05</title><g id="コンテンツ"><use width="80" height="80" xlink:href="#データエンジニア"/></g></svg>