<svg xmlns="http://www.w3.org/2000/svg" xmlns:xlink="http://www.w3.org/1999/xlink" viewBox="0 0 80 80"><defs><style>.cls-1,.cls-6{fill:#fff;}.cls-2{fill:#e5f3f2;}.cls-3,.cls-5{fill:none;stroke-linecap:round;}.cls-3,.cls-5,.cls-6{stroke:#00684d;stroke-width:2px;}.cls-3{stroke-linejoin:round;}.cls-4{fill:#b2dcd7;}.cls-5,.cls-6{stroke-miterlimit:10;}</style><symbol id="プロダクトマネジャー" data-name="プロダクトマネジャー" viewBox="0 0 80 80"><rect class="cls-1" width="80" height="80"/><circle class="cls-2" cx="37.5" cy="38.5" r="27"/><polygon class="cls-1" points="57.5 37.5 57.5 11.5 45.5 11.5 45.5 23.5 32.5 23.5 32.5 65.5 69.5 65.5 69.5 37.5 57.5 37.5"/><line class="cls-3" x1="45.5" y1="65.5" x2="42.5" y2="65.5"/><polyline class="cls-3" points="32.5 40.5 32.5 23.5 45.5 23.5"/><rect class="cls-3" x="45.5" y="11.5" width="12" height="54"/><polyline class="cls-3" points="57.5 37.5 69.5 37.5 69.5 65.5 57.5 65.5"/><path class="cls-4" d="M38.5,58.2c0-1.52-4.41-3.7-8-3.7s-8,2.18-8,3.7v6.6c0,1.52,4.4,3.7,8,3.7s8-2.18,8-3.7Z"/><path class="cls-5" d="M38.5,64.5V58.2c0-1.52-4.41-3.7-8-3.7s-8,2.18-8,3.7v6.3"/><path class="cls-6" d="M30.5,44.5a3.91,3.91,0,0,0-4,3.6v2.8a4,4,0,0,0,8,0V48.1A3.91,3.91,0,0,0,30.5,44.5Z"/></symbol></defs><title>job_ico_07</title><g id="コンテンツ"><use width="80" height="80" xlink:href="#プロダクトマネジャー"/></g></svg>