<svg xmlns="http://www.w3.org/2000/svg" xmlns:xlink="http://www.w3.org/1999/xlink" viewBox="0 0 80 80"><defs><style>.cls-1,.cls-5{fill:#fff;}.cls-2{fill:#e5f3f2;}.cls-3{fill:#b2dcd7;}.cls-4{fill:none;}.cls-4,.cls-5{stroke:#00684d;stroke-linecap:round;stroke-linejoin:round;stroke-width:2px;}</style><symbol id="セールス" data-name="セールス" viewBox="0 0 80 80"><rect class="cls-1" width="80" height="80"/><circle class="cls-2" cx="33.5" cy="33.5" r="25"/><path class="cls-1" d="M57,28.91c-2.69,0-4.48-2.19-4.48-4.89V22.39c0-2.7,1.79-4.89,4.48-4.89s4.48,2.19,4.48,4.89V24C61.48,26.72,59.69,28.91,57,28.91Z"/><path class="cls-3" d="M29.5,48.5c4.41,0,5-5,5-5h-9l-4.1-5.74A3,3,0,0,0,19,36.5H16.5c-2.11,0-3.39,1.83-4,4,0,0-2.44,11.16-3,15s2,5,4,5h9l4.49,11,5.56,0L28.23,57.1a4,4,0,0,0-3.41-2.9l-6.32-.7,1.38-8,2.62,3Z"/><path class="cls-4" d="M67.5,44.5V37.91c0-2.65-4.1-4.21-7.67-4.81"/><path class="cls-4" d="M58.93,28.5a4.73,4.73,0,0,0,2.57-4.44V22.5c0-2.73-1.79-5-4.5-5s-4.5,2.3-4.5,5v2"/><path class="cls-5" d="M22,33.5a4.47,4.47,0,0,1-4.48-4.71V27.21a4.49,4.49,0,1,1,9,0v1.58A4.47,4.47,0,0,1,22,33.5Z"/><path class="cls-4" d="M27,71.47l-4.49-11h-9c-2,0-4.56-1.16-4-5s3-15,3-15c.61-2.17,1.89-4,4-4H19a3,3,0,0,1,2.44,1.26l4.1,5.74h9s-.59,5-5,5h-7l-4.8-5.43"/><path class="cls-4" d="M19.88,45.54l-1.38,8,6.32.7a4,4,0,0,1,3.41,2.9l4.32,14.39"/><line class="cls-4" x1="22.5" y1="48.5" x2="71.5" y2="48.5"/><polygon class="cls-5" points="54.38 28.5 32.88 28.5 39.13 43.5 60.38 43.5 54.38 28.5"/><line class="cls-4" x1="67.5" y1="71.5" x2="67.5" y2="48.5"/></symbol></defs><title>job_ico_08</title><g id="コンテンツ"><use width="80" height="80" xlink:href="#セールス"/></g></svg>