<svg xmlns="http://www.w3.org/2000/svg" xmlns:xlink="http://www.w3.org/1999/xlink" viewBox="0 0 80 80"><defs><style>.cls-1,.cls-5{fill:#fff;}.cls-2{fill:#e5f3f2;}.cls-3{fill:#b2dcd7;}.cls-4,.cls-6{fill:none;}.cls-4,.cls-5,.cls-6{stroke:#00684d;stroke-miterlimit:10;stroke-width:2px;}.cls-6{stroke-linecap:round;}</style><symbol id="データサイエンティスト" data-name="データサイエンティスト" viewBox="0 0 80 80"><rect class="cls-1" width="80" height="80"/><circle class="cls-2" cx="49" cy="33.35" r="21"/><path class="cls-3" d="M59.59,63.94,47.27,51.62l-3.16,2.84L56.59,66.94a1.79,1.79,0,0,0,2.47.35l.88-.88A1.8,1.8,0,0,0,59.59,63.94Z"/><path class="cls-4" d="M47.27,51.62,59.59,63.94a1.8,1.8,0,0,1,.35,2.47l-.88.88a1.79,1.79,0,0,1-2.47-.35L44.11,54.46"/><path class="cls-5" d="M37.5,31.44A12.46,12.46,0,1,0,50,43.9,12.46,12.46,0,0,0,37.5,31.44Z"/><path class="cls-4" d="M33,48.35h3a1,1,0,0,0,1-1v-7a1,1,0,0,0-1-1H33a1,1,0,0,0-1,1v7A1,1,0,0,0,33,48.35Z"/><line class="cls-6" x1="19.98" y1="39.35" x2="19.98" y2="48.35"/><path class="cls-4" d="M11,48.35h3a1,1,0,0,0,1-1v-7a1,1,0,0,0-1-1H11a1,1,0,0,0-1,1v7A1,1,0,0,0,11,48.35Z"/><line class="cls-6" x1="10" y1="54.35" x2="10" y2="63.35"/><line class="cls-6" x1="26" y1="56.35" x2="26" y2="63.35"/><rect class="cls-4" x="15" y="54.35" width="4.98" height="9" rx="1"/><line class="cls-6" x1="64.98" y1="54.35" x2="64.98" y2="63.35"/><path class="cls-6" d="M61,59.35v-4a1,1,0,0,0-1-1H57a1,1,0,0,0-1,1"/><path class="cls-6" d="M37,59.35v3a1,1,0,0,1-1,1H33a1,1,0,0,1-1-1v-3"/><path class="cls-6" d="M42,59.35v3a1,1,0,0,0,1,1h3a1,1,0,0,0,1-1"/><line class="cls-6" x1="10" y1="34.35" x2="10" y2="25.35"/><line class="cls-6" x1="26" y1="32.35" x2="26" y2="25.35"/><rect class="cls-4" x="15" y="25.35" width="4.98" height="9" rx="1"/><line class="cls-6" x1="54" y1="34.35" x2="54" y2="25.35"/><path class="cls-6" d="M38,28.35v-2a1,1,0,0,0-1-1H34a1,1,0,0,0-1,1v2"/><path class="cls-6" d="M48,31.35v-5a1,1,0,0,0-1-1H44a1,1,0,0,0-1,1l0,2"/><line class="cls-6" x1="64.98" y1="39.35" x2="64.98" y2="48.35"/><path class="cls-4" d="M56,48.35h3a1,1,0,0,0,1-1v-7a1,1,0,0,0-1-1H56a1,1,0,0,0-1,1v7A1,1,0,0,0,56,48.35Z"/><path class="cls-4" d="M61,34.35h3a1,1,0,0,0,1-1v-7a1,1,0,0,0-1-1H61a1,1,0,0,0-1,1v7A1,1,0,0,0,61,34.35Z"/><line class="cls-6" x1="41.98" y1="39.35" x2="41.98" y2="48.35"/></symbol></defs><title>job_ico_02</title><g id="コンテンツ"><use width="80" height="80" xlink:href="#データサイエンティスト"/></g></svg>