<svg xmlns="http://www.w3.org/2000/svg" xmlns:xlink="http://www.w3.org/1999/xlink" viewBox="0 0 80 80"><defs><style>.cls-1,.cls-5{fill:#fff;}.cls-2{fill:#b2dcd7;}.cls-3{fill:#e5f3f2;}.cls-4,.cls-6,.cls-7{fill:none;}.cls-4,.cls-5,.cls-6,.cls-7{stroke:#00684d;stroke-width:2px;}.cls-4,.cls-6{stroke-linecap:round;}.cls-4{stroke-linejoin:round;}.cls-5,.cls-6,.cls-7{stroke-miterlimit:10;}</style><symbol id="_フロントエンドエンジニア" data-name="  フロントエンドエンジニア" viewBox="0 0 80 80"><rect class="cls-1" width="80" height="80"/><path class="cls-2" d="M27.5,63l-7.73-9.45A4.24,4.24,0,0,0,16.5,52c-3,0-5.12,1.84-5.65,5.65C10.39,60.94,9.5,68,9.5,68h22c4,0,4-5,4-5Z"/><circle class="cls-3" cx="29.5" cy="33" r="21"/><path class="cls-1" d="M71.5,41V35L66,34a16,16,0,0,0-1.71-4.11l3.2-4.62L63.23,21l-4.61,3.2a16.08,16.08,0,0,0-4.12-1.71L53.5,17h-6l-1,5.52a16.08,16.08,0,0,0-4.12,1.71L37.77,21l-4.24,4.24,3.2,4.61A16.23,16.23,0,0,0,35,34L29.5,35v6L35,42a16.23,16.23,0,0,0,1.71,4.12l-3.2,4.61L37.77,55l4.62-3.2a16,16,0,0,0,4.11,1.71l1,5.52h6l1-5.52a16.08,16.08,0,0,0,4.12-1.71L63.23,55l4.24-4.24-3.2-4.61A16.23,16.23,0,0,0,66,42Z"/><polyline class="cls-4" points="30.72 59 36.5 51 55.5 51 47.5 64 39.5 64"/><line class="cls-4" x1="18.5" y1="68" x2="56.5" y2="68"/><path class="cls-5" d="M20,48a5.4,5.4,0,0,1-5.5-5.57V40.57A5.4,5.4,0,0,1,20,35a5.4,5.4,0,0,1,5.5,5.57v1.86A5.4,5.4,0,0,1,20,48Z"/><path class="cls-6" d="M17.5,61l6,7h8c4,0,4-5,4-5h-8l-7.73-9.45A4.24,4.24,0,0,0,16.5,52c-3,0-5.12,1.84-5.65,5.65C10.39,60.94,9.5,68,9.5,68"/><circle class="cls-7" cx="50.5" cy="38" r="5"/><path class="cls-4" d="M58.62,51.77,63.23,55l4.24-4.24-3.2-4.61A16.23,16.23,0,0,0,66,42l5.52-1V35L66,34a16,16,0,0,0-1.71-4.11l3.2-4.62L63.23,21l-4.61,3.2a16.08,16.08,0,0,0-4.12-1.71L53.5,17h-6l-1,5.52a16.08,16.08,0,0,0-4.12,1.71L37.77,21l-4.24,4.24,3.2,4.61A16.23,16.23,0,0,0,35,34L29.5,35v6L35,42a16.23,16.23,0,0,0,1.71,4.12"/></symbol></defs><title>job_ico_03</title><g id="コンテンツ"><use width="80" height="80" xlink:href="#_フロントエンドエンジニア"/></g></svg>