<svg xmlns="http://www.w3.org/2000/svg" xmlns:xlink="http://www.w3.org/1999/xlink" viewBox="0 0 80 80"><defs><style>.cls-1,.cls-4{fill:#fff;}.cls-2{fill:#e5f3f2;}.cls-3{fill:#b2dcd7;}.cls-4,.cls-5{stroke:#00684d;stroke-width:2px;}.cls-4{stroke-miterlimit:10;}.cls-5{fill:none;stroke-linecap:round;stroke-linejoin:round;}</style><symbol id="ディレクター" data-name="ディレクター" viewBox="0 0 80 80"><rect class="cls-1" width="80" height="80"/><circle class="cls-2" cx="40" cy="36.5" r="28"/><path class="cls-3" d="M40,33.5c-4.49,0-10,2.53-10,4v6c0,1.47,5.51,4,10,4s10-2.53,10-4v-6C50,36,44.49,33.5,40,33.5Z"/><path class="cls-4" d="M40,33.49a5,5,0,0,0,5-5.1V26.68a5,5,0,1,0-10,0v1.71A5,5,0,0,0,40,33.49Z"/><path class="cls-5" d="M50,43.5v-6c0-1.47-5.5-4-10-4S30,36,30,37.5v6"/><path class="cls-3" d="M40,57.5c-4.49,0-10,2.53-10,4v6c0,1.47,5.51,4,10,4s10-2.53,10-4v-6C50,60,44.49,57.5,40,57.5Z"/><path class="cls-4" d="M40,57.49a5,5,0,0,0,5-5.1V50.68a5,5,0,1,0-10,0v1.71A5,5,0,0,0,40,57.49Z"/><path class="cls-5" d="M50,67.5v-6c0-1.47-5.5-4-10-4S30,60,30,61.5v6"/><path class="cls-3" d="M20,45.5c-4.49,0-10,2.53-10,4v6c0,1.47,5.51,4,10,4s10-2.53,10-4v-6C30,48,24.49,45.5,20,45.5Z"/><path class="cls-4" d="M20,45.49a5,5,0,0,0,5-5.1V38.68a5,5,0,1,0-10,0v1.71A5,5,0,0,0,20,45.49Z"/><path class="cls-5" d="M30,55.5v-6c0-1.47-5.5-4-10-4S10,48,10,49.5v6"/><path class="cls-3" d="M60,45.5c-4.49,0-10,2.53-10,4v6c0,1.47,5.51,4,10,4s10-2.53,10-4v-6C70,48,64.49,45.5,60,45.5Z"/><path class="cls-4" d="M60,45.49a5,5,0,0,0,5-5.1V38.68a5,5,0,1,0-10,0v1.71A5,5,0,0,0,60,45.49Z"/><path class="cls-5" d="M70,55.5v-6c0-1.47-5.5-4-10-4S50,48,50,49.5v6"/></symbol></defs><title>job_ico_06</title><g id="コンテンツ"><use width="80" height="80" xlink:href="#ディレクター"/></g></svg>