<svg xmlns="http://www.w3.org/2000/svg" xmlns:xlink="http://www.w3.org/1999/xlink" viewBox="0 0 80 80"><defs><style>.cls-1,.cls-4{fill:#fff;}.cls-2{fill:#e5f3f2;}.cls-3,.cls-5{fill:#00684d;}.cls-3,.cls-4,.cls-6{fill-rule:evenodd;}.cls-6{fill:#b2dcd7;stroke:#00684d;stroke-miterlimit:10;stroke-width:2px;}</style><symbol id="獣医師2" data-name="獣医師2" viewBox="0 0 80 80"><rect class="cls-1" width="80" height="80"/><path class="cls-2" d="M15.52,43.08l.42.58L29.11,33.47l-6.85-8.86a1.21,1.21,0,0,0-2.26.24l-.6,1.33a2.86,2.86,0,0,1-3.12,1.56L4.88,25.17A1.4,1.4,0,0,0,3.06,26.9L3.92,32A3.59,3.59,0,0,0,6.5,34.72l6.37,1.37c1.22.27,1.19.45,0,.41l-3.56-.1c-1.24,0-1.81.82-1.27,1.91a5,5,0,0,0,3.19,2.39l.79.14A6.61,6.61,0,0,1,15.52,43.08Z"/><path class="cls-2" d="M29.15,67.28a4.77,4.77,0,0,1-1-1,2.91,2.91,0,0,1-.35-.62,2.2,2.2,0,0,1-.15-.77,12.5,12.5,0,0,1,.91-4.95,9.59,9.59,0,0,1,2.4-3.38A12.78,12.78,0,0,1,33,55a23.17,23.17,0,0,1,3-1.44c1.36-.54,2.7-1,3.87-1.47a15.55,15.55,0,0,0,1.82-.85,6.33,6.33,0,0,0,.81-.54c-3-3.83-7.29-9.33-11.14-14.29L18.13,46.69l1.72,2.46c-2,5.37-5.92,16.47-5.92,16.47a2.69,2.69,0,0,0,1.65,3.43,2.61,2.61,0,0,0,3.32-1.67l5.64-11.53,1.85,2.64a4.43,4.43,0,0,0-1.18,2.9l0,1.21h-.32c-5.85,0-6.18,6.5-.32,6.5h8.38l-.77-.27A12.64,12.64,0,0,1,29.15,67.28Z"/><path class="cls-3" d="M52.25,7.53C66.09,7.53,66.6,18.87,66.62,24c.1.57.19,1.16.24,1.76,5.87,1.4,2.61,10.56-1.72,11.86-5.14,12.76-20.21,12.63-25.49,0-4.42-1.2-7.79-10.46-1.89-11.89,0-.4.08-.78.13-1.16,0-4.73-.06-17,14.36-17Z"/><path class="cls-4" d="M63.29,21.3a15.56,15.56,0,0,0-22-.08,14.49,14.49,0,0,0-1.22,5.61l0,1.19-1.19,0h0c-3.66,0-1.3,7,1.85,7.41l.69.1.25.66c4.35,11.35,17.25,11.51,21.49,0l.24-.64.68-.12c3-.53,5.41-7.4,1.74-7.4h0L64.6,28l0-1.17a14.81,14.81,0,0,0-1.26-5.55Z"/><path class="cls-3" d="M38.82,28h0Z"/><polygon class="cls-3" points="65.79 27.99 65.79 27.99 65.79 27.99 65.79 27.99 65.79 27.99 65.79 27.99"/><path class="cls-3" d="M65.79,28Z"/><path class="cls-5" d="M43.54,25.4h5.37a2.6,2.6,0,0,1,1.82.75l.21.24a2.6,2.6,0,0,1,.54,1.49h1.68a2.55,2.55,0,0,1,.75-1.73h0l.24-.21a2.54,2.54,0,0,1,1.58-.54h5.36a2.58,2.58,0,0,1,1.82.75l.21.24A2.58,2.58,0,0,1,63.66,28h0V30.5h0a2.56,2.56,0,0,1-.75,1.82,1.29,1.29,0,0,1-.24.21,2.53,2.53,0,0,1-1.58.55H55.73a2.53,2.53,0,0,1-1.82-.76h0a1.21,1.21,0,0,1-.21-.24,2.59,2.59,0,0,1-.55-1.58v-.93H51.48v.93h0a2.56,2.56,0,0,1-.75,1.82l-.24.21a2.53,2.53,0,0,1-1.58.55H43.54a2.56,2.56,0,0,1-1.82-.76h0a1.59,1.59,0,0,1-.2-.24A2.53,2.53,0,0,1,41,30.5V28h0a2.54,2.54,0,0,1,.76-1.82h0L42,26a2.53,2.53,0,0,1,1.57-.54Zm17.55,1.7H55.73a.85.85,0,0,0-.54.19l-.08.07h0a.88.88,0,0,0-.26.62h0V30.5A.9.9,0,0,0,55,31a.6.6,0,0,0,.08.08h0a.88.88,0,0,0,.62.26h5.36a.92.92,0,0,0,.54-.18.57.57,0,0,1,.08-.08A.88.88,0,0,0,62,30.5h0V28h0a.87.87,0,0,0-.19-.54l-.07-.08a.88.88,0,0,0-.62-.26Zm-12.18,0H43.54a.84.84,0,0,0-.53.19l-.08.07h0a.88.88,0,0,0-.26.62h0V30.5a.9.9,0,0,0,.18.54.6.6,0,0,0,.08.08h0a.87.87,0,0,0,.61.26h5.37a.87.87,0,0,0,.53-.18l.09-.08a.88.88,0,0,0,.26-.62h0V28h0a.87.87,0,0,0-.19-.54l-.07-.08a.88.88,0,0,0-.62-.26Z"/><path class="cls-6" d="M25.67,68.14c0-.33,0-5.32,0-5.64.73-9,10.16-12,16.74-16.56,7.52,5.58,13,5.46,19.95.16C69,50.56,78.17,53.64,78.92,62.5c0,.36,0,5.38,0,5.76a1.19,1.19,0,0,1-1.19,1.21H26.87a1.2,1.2,0,0,1-1.2-1.33Z"/><path class="cls-3" d="M58.88,58.52a.36.36,0,0,0-.36.36v2.9a.36.36,0,0,0,.36.36h2.85V65a.38.38,0,0,0,.37.37H65a.37.37,0,0,0,.36-.37V62.14h2.86a.36.36,0,0,0,.36-.36v-2.9a.36.36,0,0,0-.36-.36H65.35V55.66A.36.36,0,0,0,65,55.3H62.1a.37.37,0,0,0-.37.36v2.86Z"/></symbol></defs><title>job_ico_01</title><g id="コンテンツ"><use width="80" height="80" xlink:href="#獣医師2"/></g></svg>