<svg id="pc" xmlns="http://www.w3.org/2000/svg" viewBox="0 0 528 102"><defs><style>.cls-1{fill:#231815;}</style></defs><title>logo_01_anime01_c0</title><g id="title"><path class="cls-1" d="M280.17.65c6.33,1.12,12.66,1.74,19,2.31C322.36,5,345,10,367.48,15.87c23.1,6.05,46.44,10.94,70.22,13.51,1.75.19,3.5.22,5.72.36,6.58.26,13.58.58,13.58.58,13.21.17,25.5-1.32,36.89-7.42a52.31,52.31,0,0,1,5.82-3.08c1.05-.4,2.42,0,3.64.06-.41,1.13-.52,2.56-1.28,3.36A44.21,44.21,0,0,1,478.72,36.1c-7,1.45-21.43,3.45-21.43,3.64A89.61,89.61,0,0,1,443,39.12c-5.15-.49-10.49-.9-15.82-1.43-26.8-2.64-53.07-8.17-79-15C311.56,12.93,274.48,10,236.83,12.93A426.8,426.8,0,0,0,125.77,36.46c-1.91.68-3.92,1-5.89,1.55l-.63-1.16a48.19,48.19,0,0,1,5-3.5,258.69,258.69,0,0,1,55.19-21.59,308.51,308.51,0,0,1,63.48-10A7.43,7.43,0,0,0,246.45.65Z"/></g></svg>