<svg id="pc" xmlns="http://www.w3.org/2000/svg" viewBox="0 0 528 102"><defs><style>.cls-1{fill:#231815;}</style></defs><title>logo_01_c0</title><g id="title"><path class="cls-1" d="M280.17.65c6.33,1.12,12.66,1.74,19,2.31C322.36,5,345,10,367.48,15.87c23.1,6.05,46.44,10.94,70.22,13.51,1.75.19,3.5.22,5.72.36,0-3.22-.13-6.28.08-9.31a3.77,3.77,0,0,1,1.6-2.64c3.77-2.11,7.67-4,11.9-6.13V30.32c13.21.17,25.5-1.32,36.89-7.42a52.31,52.31,0,0,1,5.82-3.08c1.05-.4,2.42,0,3.64.06-.41,1.13-.52,2.56-1.28,3.36A44.21,44.21,0,0,1,478.72,36.1c-7,1.45-14.05,2.26-21.31,3.4.07-.13-.12,0-.12.24,0,15.19-.12,30.38,0,45.57.05,5.3,2.93,8.07,8.21,8.44,2.39.18,4.82,0,7.26,0,1.07,5,.85,5.54-2.89,6.87H458.65a11.61,11.61,0,0,1-3.06-.64c-8.07-2.18-12.06-7.09-12.13-15.49-.11-13.88,0-27.76-.46-41.64V39.12c-5.15-.49-10.49-.9-15.82-1.43-26.8-2.64-53.07-8.17-79-15C311.56,12.93,274.48,10,236.83,12.93A426.8,426.8,0,0,0,125.77,36.46c-1.91.68-3.92,1-5.89,1.55l-.63-1.16a48.19,48.19,0,0,1,5-3.5,258.69,258.69,0,0,1,55.19-21.59,308.51,308.51,0,0,1,63.48-10A7.43,7.43,0,0,0,246.45.65ZM91,100.78c6-1.54,10.82-4.78,15.37-9.86,1.32,6,4.44,9.77,11.18,10.53l7.25-.89L129,99.1V94.87c-7.12.07-8.7-1.43-9-8.35-.06-1.32,0-2.64,0-4,0-8.15.1-16.29-.12-24.43-.21-8.32-3.84-13.46-11-15.31a44,44,0,0,0-28.46,1.86,18,18,0,0,0-6.4,5A6,6,0,0,0,74.46,58a8.32,8.32,0,0,0,13.3-3.65c.26-.83.45-1.69.7-2.53,1.42-4.7,3.53-6.25,8.41-6.21,4.61,0,7.61,1.9,8.39,6.33.85,4.8.86,9.74,1.25,14.77-3.59.33-6.53.53-9.46.88-7,.84-13.94,2.08-20.06,5.94-5,3.14-7.52,7.57-6.85,13.61s4.09,10,9.68,12.21c1,.4,2.09.74,3.14,1.1ZM105,83.91c-1.56,6.41-8.38,10-14.71,8.29-5.83-1.57-8-9.44-3.61-14.17A14.88,14.88,0,0,1,93,74c3.93-1.22,8.09-1.72,13.19-2.73C105.77,76.18,105.94,80.18,105,83.91Zm409.77,16.74c2.67-.6,5.34-1.16,8-1.82,5-1.26,5.2-1.67,3.85-6.9-8.89,2-17.82,3.21-26.07-2.15-7-4.57-12.08-16.92-9.85-24.13h37c1.42-11.44-4.73-20.89-15.65-23a50,50,0,0,0-16.33-.37c-12.06,1.73-18.33,8.44-20.19,20.55a43.49,43.49,0,0,0-.3,8.54c.67,14.71,9.38,25.15,23.53,28.39,1.16.27,2.3.6,3.45.9Zm-24.46-41c-.2-7.07,4.73-11.67,12.48-11.79,8.18-.13,11.75,3.38,11.69,11.79Zm-292.63-1.9q.08,13.55,0,27.1c0,8.33-1.33,9.76-9.42,10.82a.38.38,0,0,0-.3.36v3.62h32.59c-.08-1.59-.13-2.75-.19-3.81-7.49-1.36-8.73-2.75-8.86-10.07-.1-5.62-.25-11.24,0-16.85.36-7.31,2.83-13.68,10-16.91,8.06-3.6,12.67-.73,12.89,8s.19,17.4.12,26.1c-.05,7-1.24,8.32-8.12,9.58-.18,0-.32.24-.66.52,0,1,.15,2.43.15,2.43h31V96c-7.74-2-8.48-2.93-8.53-11.26,0-5.17-.08-10.35,0-15.53.14-7.76,5.32-15.5,11.72-17.69,7.32-2.5,11.16,0,11.31,7.66.16,8.59.12,17.19.1,25.78,0,8.29-.72,9.14-8.61,11v3.73h67V96c-9-1.48-10.65-1.38-10.72-13.21,0-3.74.08-7.49,0-11.23-.21-8,3.66-13.87,9.87-18.38,3.39-2.47,7.3-3.45,11.22-1.59,3.63,1.71,3.8,5.52,3.89,8.89q.31,13.2.15,26.43c-.07,6-1.88,7.75-7.77,8.56a15.43,15.43,0,0,0-1.62.24v3.93h33V96c-9.15-1.76-10-2.86-10.07-12.29,0-1.43,0-2.87,0-4.3,0-8.15.1-16.3-.11-24.45-.18-7.11-3.76-11.36-10.33-12.55-10-1.82-18.48.88-24.93,9-1,1.25-1.95,2.52-2.93,3.78L319,55V40.3l-23.52,2.87c-.06.9-.14,1.54-.14,2.18s.09,1.25.13,1.83c8.79,1.54,9.93,2.93,9.93,12,0,8.86.09,17.72,0,26.58-.11,7.5-2.48,9.66-10,9.62a22.71,22.71,0,0,1-2.61-.16c-5-.66-6.95-2.57-7.18-7.66-.19-4.36,0-8.75-.1-13.12-.16-7.32-.17-14.65-.71-21.94-.36-5-3.08-8.49-8.22-9.84a23.1,23.1,0,0,0-25.44,9.17c-.67.93-1.36,1.84-2.31,3.13-.32-1.56-.5-2.62-.75-3.68a10.69,10.69,0,0,0-7-8A22.72,22.72,0,0,0,214.67,51c-.68.93-1.33,1.87-2,2.81l-.68-.18V40.08L188,43v4.24S197.68,50.06,197.72,57.75ZM42.35,95.16c-9.48-.86-11.15-2.6-11.23-12.07-.08-8.34-.05-16.68-.05-25,0-.94.12-1.88.19-2.89,5.28,0,10.26-.09,15.22,0,6.66.15,8.72,2.25,9.2,9a10.24,10.24,0,0,0,.34,1.5h5v-30H55.39c-.06,1.23-.07,2.21-.15,3.17-.36,4.33-1.86,6.42-6.13,6.69-6,.39-12,.1-18.17.1,0-9-.14-17.83.07-26.7.08-3.58,2-5.46,5.63-5.56a184.12,184.12,0,0,1,19.09.19c5.57.44,10.5,2.6,12.48,8.52,1.52,4.55,1.5,4.56,6.83,3.73-.32-6.7-.65-13.43-1-20.14H0V11C10.22,12.1,14.22,13.36,14.23,27.6c0,18,.13,36,.15,54a43.36,43.36,0,0,1-.47,6.55c-.66,4.32-2.51,6-6.94,6.61-1.82.25-3.64.44-5.61.68l.22,4.21H44V95.39C43.21,95.28,42.78,95.2,42.35,95.16Zm364.54,3.76c11.62-1.41,19.26-8,20.94-19.52a62.87,62.87,0,0,0-.33-19c-1.59-9.8-8.11-15.55-17.77-17.63a47.76,47.76,0,0,0-20,0c-10,2.09-16.37,8.18-18.07,18.18a58.62,58.62,0,0,0-.34,17c1.56,12.18,8.1,18.56,20.09,20.75,2.26.42,4.59.48,7.45.75C401.18,99.34,404.05,99.27,406.89,98.92Zm5.28-14.62c-1.66,6.26-6.12,9.32-12.36,9.37s-10.7-2.9-12.53-9.15a48.75,48.75,0,0,1,0-28c1.84-6.21,6.28-9.13,12.6-9.06,6.11.08,10.54,3,12.19,9.14,1.23,4.51,1.55,9.26,2.27,13.86C413.64,75.24,413.34,79.89,412.17,84.3ZM157.11,84c0-4.29-.11-8.59,0-12.88.2-5.81,1.29-11.4,5.11-16,2.84-3.43,5.27-3.78,9-1.52,3.14,1.88,6.88,1.65,9.25-.65A6,6,0,0,0,182.09,46c-1.07-2.76-4.43-4.36-8.12-4.06-6.55.52-11.18,4.05-14.5,9.65-.61,1-1.23,2.06-1.85,3.08L157,54.5V40L132,43v4.16S142.87,50,142.91,58.26q.08,12.72,0,25.44c0,9.55-.81,10.45-9.92,12.17v3.78h34V96C158.11,94.33,157.11,93.09,157.11,84Z"/></g></svg>