<svg id="MV" xmlns="http://www.w3.org/2000/svg" viewBox="0 0 156 30"><defs><style>.cls-1{fill:#fff;}</style></defs><title>logo_01_wh</title><g id="A"><path class="cls-1" d="M82.78.25l5.61.53A121.52,121.52,0,0,1,108.57,4.6a143.64,143.64,0,0,0,20.75,4c.52.05,1,.06,1.69.1,0-.95,0-1.85,0-2.75a1.14,1.14,0,0,1,.48-.78c1.11-.62,2.26-1.18,3.5-1.81V8.87c3.92.05,7.55-.4,10.91-2.2a18.83,18.83,0,0,1,1.72-.91,3,3,0,0,1,1.08,0,2.84,2.84,0,0,1-.38,1,13,13,0,0,1-6.9,3.8c-2.06.43-4.15.67-6.3,1,0,0,0,0,0,.07,0,4.49,0,9,0,13.46a2.31,2.31,0,0,0,2.43,2.5c.7.05,1.42,0,2.14,0,.32,1.47.25,1.63-.85,2.13h-3.32c-.3-.1-.6-.21-.9-.29A4.33,4.33,0,0,1,131,24.88c0-4.1,0-8.2,0-12.3V11.47c-1.64-.15-3.22-.27-4.8-.43A148,148,0,0,1,102.86,6.6,97.75,97.75,0,0,0,70,3.73a125.75,125.75,0,0,0-32.81,7c-.56.2-1.16.31-1.74.46l-.19-.34a13.6,13.6,0,0,1,1.48-1A76.32,76.32,0,0,1,53,3.38a90.87,90.87,0,0,1,18.76-3,9.56,9.56,0,0,0,1-.17Z"/><path class="cls-1" d="M152.11,29.75c.79-.18,1.58-.35,2.36-.54,1.48-.37,1.54-.5,1.14-2-2.63.6-5.27.94-7.71-.64-2.08-1.35-3.58-5-2.92-7.14h11c.42-3.39-1.4-6.18-4.63-6.81a14.77,14.77,0,0,0-4.83-.11c-3.57.51-5.43,2.5-6,6.08a14.25,14.25,0,0,0-.09,2.53,8.57,8.57,0,0,0,7,8.4c.34.08.68.18,1,.27Zm-7.23-12.32c-.06-2.09,1.39-3.45,3.68-3.49s3.47,1,3.46,3.49Z"/><path class="cls-1" d="M26.92,29.75a9,9,0,0,0,4.39-2.88,3.55,3.55,0,0,0,2.25,2.88h3.12L38,29.29V28c-2.1,0-2.57-.42-2.66-2.47,0-.39,0-.78,0-1.17,0-2.41,0-4.81,0-7.22s-1.14-4-3.27-4.52a13,13,0,0,0-8.41.55,5.27,5.27,0,0,0-1.89,1.46,1.8,1.8,0,0,0,.15,2.48,2.47,2.47,0,0,0,3.94-1.08c.07-.25.13-.5.2-.75a2.16,2.16,0,0,1,2.49-1.83A2.2,2.2,0,0,1,31,15.36c.25,1.41.25,2.88.36,4.36-1.05.1-1.92.16-2.79.26a13.79,13.79,0,0,0-5.93,1.76,3.94,3.94,0,0,0-2,4,4.14,4.14,0,0,0,2.86,3.6c.36.14.73.26,1.1.39ZM31,24.7a3.5,3.5,0,0,1-4.34,2.45A2.57,2.57,0,0,1,25.62,23a4.42,4.42,0,0,1,1.85-1.18,37.92,37.92,0,0,1,3.9-.8A25.86,25.86,0,0,1,31,24.7ZM58.42,17q0,4,0,8c0,2.46-.4,2.88-2.79,3.19-.05,0-.09.07-.14.11v1h9.68l0-1.09c-2.21-.4-2.58-.81-2.62-3,0-1.66-.07-3.32,0-5,.1-2.16.83-4,3-5,2.38-1.06,3.75-.21,3.81,2.37s.06,5.14,0,7.71c0,2.08-.37,2.46-2.4,2.83-.06,0-.1.07-.2.16l0,1H76V28.26c-2.38-.59-2.6-.87-2.62-3.33,0-1.53,0-3.06,0-4.59a5.81,5.81,0,0,1,3.47-5.22c2.16-.74,3.29,0,3.34,2.26,0,2.54,0,5.08,0,7.62S80,27.7,77.7,28.25v1.06H97.34v-1c-2.49-.43-3-.4-3-3.9,0-1.1,0-2.21,0-3.32a6.28,6.28,0,0,1,2.91-5.43,3.15,3.15,0,0,1,3.32-.47c1.07.51,1.12,1.63,1.15,2.63.06,2.6.08,5.2,0,7.81,0,1.76-.55,2.29-2.3,2.53l-.6.07v1.14h10V28.24c-2.71-.52-3-.85-3-3.63,0-.43,0-.85,0-1.27,0-2.41,0-4.82,0-7.23a3.48,3.48,0,0,0-3.06-3.71,7.17,7.17,0,0,0-7.38,2.68c-.29.36-.57.74-.86,1.11l-.19-.06V11.76l-7,.85c0,.27,0,.46,0,.65a4.56,4.56,0,0,0,0,.54c2.61.46,3,.88,3,3.57s0,5.27,0,7.91c0,2.23-.74,2.87-3,2.86a4.9,4.9,0,0,1-.77-.05c-1.5-.19-2.07-.76-2.14-2.28-.06-1.3,0-2.6,0-3.9,0-2.18,0-4.36-.21-6.53a3.06,3.06,0,0,0-2.45-2.93,6.89,6.89,0,0,0-7.57,2.73c-.19.28-.4.55-.68.93-.1-.46-.15-.78-.23-1.09a3.18,3.18,0,0,0-2.07-2.4A6.75,6.75,0,0,0,63.28,15c-.21.28-.4.56-.59.84l-.21-.06v-4l-7,.85v1.26C57.83,14.08,58.41,14.7,58.42,17Zm-45.95,11c-2.79-.26-3.28-.77-3.31-3.58,0-2.47,0-5,0-7.42,0-.28,0-.56.06-.86,1.55,0,3,0,4.48,0,2,.05,2.56.67,2.71,2.66a2.16,2.16,0,0,0,.1.44h1.57V10.65H16.41c0,.37,0,.67-.05,1-.1,1.29-.55,1.92-1.81,2-1.77.12-3.55,0-5.39,0,0-2.68,0-5.35,0-8A1.54,1.54,0,0,1,10.85,4,53.41,53.41,0,0,1,16.51,4,3.79,3.79,0,0,1,20.2,6.58c.46,1.36.45,1.36,2,1.12l-.29-6.05H0V3c3,.33,4.19.7,4.19,4.93,0,5.33,0,10.67,0,16a12.56,12.56,0,0,1-.13,1.94,2,2,0,0,1-2,2c-.53.08-1.07.13-1.65.2l.07,1.25H13V28Zm107.75,1.21c3.43-.42,5.69-2.38,6.18-5.77a18.85,18.85,0,0,0-.09-5.61c-.47-2.9-2.4-4.59-5.25-5.21a14.18,14.18,0,0,0-5.91,0,6.27,6.27,0,0,0-5.34,5.37,17.31,17.31,0,0,0-.1,5c.46,3.6,2.39,5.49,5.94,6.13.67.13,1.35.14,2.2.23C118.53,29.26,119.38,29.24,120.22,29.14Zm1.56-4.33a3.84,3.84,0,0,1-7.36.07,14.43,14.43,0,0,1,0-8.26,3.49,3.49,0,0,1,3.72-2.68,3.45,3.45,0,0,1,3.6,2.7,35.38,35.38,0,0,1,.67,4.1A39.32,39.32,0,0,1,121.78,24.81Zm-75.49-.12c0-1.27,0-2.54,0-3.81a7.37,7.37,0,0,1,1.54-4.72,1.83,1.83,0,0,1,2.74-.45,2.33,2.33,0,0,0,2.8-.2,1.72,1.72,0,0,0,.47-2,2.34,2.34,0,0,0-2.46-1.2A5.42,5.42,0,0,0,47,15.12l-.57.93L46.25,16V11.76l-7,.85v1.24c2.42.28,2.92.84,2.93,3.27s0,5,0,7.52c0,2.82-.24,3.08-2.94,3.59v1.09h10V28.24C46.59,27.75,46.29,27.38,46.29,24.69Z"/></g></svg>