<svg xmlns="http://www.w3.org/2000/svg" viewBox="0 0 290 140"><defs><style>.cls-1{fill:#212121;}.cls-2{fill:#b2d1e4;}</style></defs><title>service_skyarc_connect_img_01</title><g id="コンテンツ"><path class="cls-1" d="M91.8,114.77l4.63-4.62.4.4-4.62,4.62,4.62,4.63-.4.4-4.63-4.62-4.63,4.64-.41-.41,4.64-4.64-4.62-4.62.4-.4Zm-2.94.4a1,1,0,0,1-2.1,0,1,1,0,0,1,2.1,0Zm2.94-2.94a1,1,0,1,1,1-1A1.06,1.06,0,0,1,91.8,112.23Zm0,5.89a1,1,0,0,1,0,2.1,1,1,0,0,1,0-2.1Zm3-3a1,1,0,1,1,1,1A1.06,1.06,0,0,1,94.75,115.17Z"/><path class="cls-1" d="M99.42,119.56c3-2.69,4.61-4.69,4.61-6.39a1.69,1.69,0,0,0-1.76-1.89,2.81,2.81,0,0,0-2,1.15l-.91-.9a4.08,4.08,0,0,1,3.14-1.54,2.92,2.92,0,0,1,3.11,3.1c0,2-1.58,4-3.77,6.13.53,0,1.18-.1,1.68-.1h2.58v1.38H99.42Z"/><path class="cls-1" d="M107.44,115.3c0-3.57,1.3-5.31,3.33-5.31s3.34,1.75,3.34,5.31-1.32,5.38-3.34,5.38S107.44,118.89,107.44,115.3Zm5.13,0c0-3-.75-4-1.8-4s-1.79,1.07-1.79,4,.74,4.1,1.79,4.1S112.57,118.28,112.57,115.3Z"/><path class="cls-1" d="M115.38,119.56c3-2.69,4.6-4.69,4.6-6.39a1.68,1.68,0,0,0-1.75-1.89,2.81,2.81,0,0,0-2,1.15l-.91-.9a4.06,4.06,0,0,1,3.14-1.54,2.92,2.92,0,0,1,3.11,3.1c0,2-1.58,4-3.77,6.13.53,0,1.18-.1,1.68-.1H122v1.38h-6.65Z"/><path class="cls-1" d="M123.4,115.3c0-3.57,1.3-5.31,3.33-5.31s3.34,1.75,3.34,5.31-1.32,5.38-3.34,5.38S123.4,118.89,123.4,115.3Zm5.12,0c0-3-.74-4-1.79-4s-1.79,1.07-1.79,4,.74,4.1,1.79,4.1S128.52,118.28,128.52,115.3Z"/><path class="cls-1" d="M147.54,118.51h-4.92v3.09h-1.34v-3.09h-6.37v-1.26h2.25v-3.7h4.12v-1.93h-3.21a12.63,12.63,0,0,1-2,2.66,9,9,0,0,0-1.13-.84,11.32,11.32,0,0,0,3.05-4.75l1.32.35c-.17.43-.36.9-.55,1.32h8.11v1.26h-4.23v1.93h3.91v1.22h-3.91v2.48h4.92Zm-6.26-1.26v-2.48h-2.82v2.48Z"/><path class="cls-1" d="M152.1,119.31l.77-1a3.33,3.33,0,0,0,2.41,1.1,2,2,0,0,0,2-2.2,1.91,1.91,0,0,0-2-2.15,2.7,2.7,0,0,0-1.65.58l-.79-.51.31-4.89h5.23v1.36h-3.83l-.23,2.64a2.92,2.92,0,0,1,1.41-.36,3,3,0,0,1,3.14,3.28,3.4,3.4,0,0,1-3.48,3.57A4.58,4.58,0,0,1,152.1,119.31Z"/><path class="cls-1" d="M174.76,119.84c0,.84-.23,1.24-.79,1.46a9.55,9.55,0,0,1-3,.26,5,5,0,0,0-.56-1.37c1.1.06,2.22,0,2.55,0s.42-.12.42-.41v-2.45H167a7.73,7.73,0,0,1-2.39,4.26,4.75,4.75,0,0,0-1-1c2.19-1.88,2.4-4.63,2.4-6.83v-4.39h8.73Zm-1.38-3.74V114h-6a17,17,0,0,1-.13,2.07Zm-6-5.39v2.07h6v-2.07Z"/><path class="cls-1" d="M183,118.05c-1.75.53-3.61,1.06-5,1.47l-.33-1.25c.59-.13,1.32-.32,2.1-.53V114.6h-1.68v-1.2h1.68v-2.74h-1.82v-1.2h4.81v1.2H181v2.74h1.58v1.2H181v2.79l1.79-.51Zm6.37,2.33c.3,0,.35-.21.4-1.62a3.26,3.26,0,0,0,1.09.49c-.11,1.79-.42,2.26-1.33,2.26h-1.22c-1.12,0-1.39-.37-1.39-1.53v-3h-1.15c-.25,2.24-1,3.8-3.79,4.67a3.63,3.63,0,0,0-.73-1.07c2.51-.66,3-1.85,3.25-3.6h-1.15v-7.7H190V117h-1.83V120c0,.38.06.42.35.42Zm-4.8-8.82h4.15V110.4h-4.15Zm0,2.19h4.15v-1.18h-4.15Zm0,2.18h4.15v-1.18h-4.15Z"/><path class="cls-1" d="M204.32,110.79V112h-7.53a17.21,17.21,0,0,1-1.67,2.81v6.73h-1.3v-5.21a12.18,12.18,0,0,1-1.46,1.21,7.34,7.34,0,0,0-.64-1.21,11.53,11.53,0,0,0,3.6-4.33H192.1v-1.25h3.78a15,15,0,0,0,.68-2.06l1.36.34c-.18.57-.38,1.15-.6,1.72Zm-3.53,9.26h3.52v1.22H196v-1.22h3.53v-3.62h-3v-1.2h3v-2.52h1.31v2.52h3v1.2h-3Z"/><path class="cls-2" d="M32.51,10.88A3.28,3.28,0,1,1,35.79,7.6,3.27,3.27,0,0,1,32.51,10.88ZM25,15.81V26.27a1.39,1.39,0,0,0,1.16,1.4,1.37,1.37,0,0,0,1.56-1.37V16.91h.64v26a1.85,1.85,0,1,0,3.69,0V27.64h.8V42.91a1.84,1.84,0,1,0,3.68,0v-26h.81v9.36a1.39,1.39,0,0,0,1.16,1.4,1.37,1.37,0,0,0,1.56-1.37V15.81A4.52,4.52,0,0,0,39,13.17a4.15,4.15,0,0,0-3.13-1.39H29.22a4.15,4.15,0,0,0-3.13,1.39A4.52,4.52,0,0,0,25,15.81Z"/><path class="cls-2" d="M55.1,10.88A3.28,3.28,0,1,1,58.38,7.6,3.28,3.28,0,0,1,55.1,10.88Zm-7.51,4.93V26.27a1.39,1.39,0,0,0,1.16,1.4,1.37,1.37,0,0,0,1.56-1.37V16.91H51v26a1.85,1.85,0,1,0,3.69,0V27.64h.8V42.91a1.84,1.84,0,1,0,3.68,0v-26h.8v9.36a1.39,1.39,0,0,0,1.17,1.4,1.37,1.37,0,0,0,1.56-1.37V15.81a4.48,4.48,0,0,0-1.1-2.64,4.11,4.11,0,0,0-3.12-1.39H51.81a4.13,4.13,0,0,0-3.13,1.39A4.52,4.52,0,0,0,47.59,15.81Z"/><path class="cls-2" d="M77.69,10.88A3.28,3.28,0,1,1,81,7.6,3.28,3.28,0,0,1,77.69,10.88Zm-7.51,4.93V26.27a1.39,1.39,0,0,0,1.16,1.4A1.37,1.37,0,0,0,72.9,26.3V16.91h.64v26a1.85,1.85,0,1,0,3.69,0V27.64H78V42.91a1.84,1.84,0,1,0,3.68,0v-26h.8v9.36a1.39,1.39,0,0,0,1.17,1.4,1.37,1.37,0,0,0,1.56-1.37V15.81a4.48,4.48,0,0,0-1.1-2.64A4.12,4.12,0,0,0,81,11.78H74.4a4.12,4.12,0,0,0-3.13,1.39A4.52,4.52,0,0,0,70.18,15.81Z"/><path class="cls-2" d="M100.28,10.88a3.28,3.28,0,1,1,3.27-3.28A3.28,3.28,0,0,1,100.28,10.88Zm-7.52,4.93V26.27a1.39,1.39,0,0,0,1.17,1.4,1.37,1.37,0,0,0,1.56-1.37V16.91h.64v26a1.84,1.84,0,1,0,3.68,0V27.64h.8V42.91a1.85,1.85,0,1,0,3.69,0v-26h.8v9.36a1.39,1.39,0,0,0,1.16,1.4,1.37,1.37,0,0,0,1.56-1.37V15.81a4.52,4.52,0,0,0-1.09-2.64,4.12,4.12,0,0,0-3.13-1.39H97a4.12,4.12,0,0,0-3.13,1.39A4.48,4.48,0,0,0,92.76,15.81Z"/><path class="cls-2" d="M122.87,10.88a3.28,3.28,0,1,1,3.27-3.28A3.28,3.28,0,0,1,122.87,10.88Zm-7.52,4.93V26.27a1.39,1.39,0,0,0,1.17,1.4,1.37,1.37,0,0,0,1.56-1.37V16.91h.64v26a1.84,1.84,0,1,0,3.68,0V27.64h.8V42.91a1.85,1.85,0,1,0,3.69,0v-26h.8v9.36a1.39,1.39,0,0,0,1.16,1.4,1.37,1.37,0,0,0,1.56-1.37V15.81a4.52,4.52,0,0,0-1.09-2.64,4.13,4.13,0,0,0-3.13-1.39h-6.62a4.11,4.11,0,0,0-3.12,1.39A4.48,4.48,0,0,0,115.35,15.81Z"/><path class="cls-2" d="M145.45,10.88a3.28,3.28,0,1,1,3.28-3.28A3.27,3.27,0,0,1,145.45,10.88Zm-7.51,4.93V26.27a1.39,1.39,0,0,0,1.16,1.4,1.37,1.37,0,0,0,1.56-1.37V16.91h.65v26A1.84,1.84,0,1,0,145,43V27.64h.8V42.91a1.85,1.85,0,1,0,3.69,0v-26h.8v9.36a1.39,1.39,0,0,0,1.16,1.4A1.37,1.37,0,0,0,153,26.3V15.81a4.52,4.52,0,0,0-1.09-2.64,4.15,4.15,0,0,0-3.13-1.39h-6.62A4.15,4.15,0,0,0,139,13.17,4.52,4.52,0,0,0,137.94,15.81Z"/><path class="cls-2" d="M168,10.88a3.28,3.28,0,1,1,3.28-3.28A3.27,3.27,0,0,1,168,10.88Zm-7.51,4.93V26.27a1.39,1.39,0,0,0,1.16,1.4,1.37,1.37,0,0,0,1.56-1.37V16.91h.64v26a1.85,1.85,0,1,0,3.69,0V27.64h.8V42.91a1.84,1.84,0,1,0,3.68,0v-26h.8v9.36a1.39,1.39,0,0,0,1.17,1.4,1.37,1.37,0,0,0,1.56-1.37V15.81a4.52,4.52,0,0,0-1.09-2.64,4.15,4.15,0,0,0-3.13-1.39h-6.62a4.13,4.13,0,0,0-3.13,1.39A4.52,4.52,0,0,0,160.53,15.81Z"/><path class="cls-2" d="M190.63,10.88a3.28,3.28,0,1,1,3.28-3.28A3.28,3.28,0,0,1,190.63,10.88Zm-7.51,4.93V26.27a1.39,1.39,0,0,0,1.16,1.4,1.37,1.37,0,0,0,1.56-1.37V16.91h.64v26a1.85,1.85,0,1,0,3.69,0V27.64h.8V42.91a1.84,1.84,0,1,0,3.68,0v-26h.8v9.36a1.39,1.39,0,0,0,1.17,1.4,1.37,1.37,0,0,0,1.56-1.37V15.81a4.48,4.48,0,0,0-1.1-2.64A4.12,4.12,0,0,0,194,11.78h-6.61a4.12,4.12,0,0,0-3.13,1.39A4.52,4.52,0,0,0,183.12,15.81Z"/><path class="cls-2" d="M213.22,10.88a3.28,3.28,0,1,1,3.27-3.28A3.28,3.28,0,0,1,213.22,10.88Zm-7.51,4.93V26.27a1.39,1.39,0,0,0,1.16,1.4,1.37,1.37,0,0,0,1.56-1.37V16.91h.64v26a1.84,1.84,0,1,0,3.68,0V27.64h.81V42.91a1.84,1.84,0,1,0,3.68,0v-26h.8v9.36a1.39,1.39,0,0,0,1.17,1.4,1.36,1.36,0,0,0,1.55-1.37V15.81a4.45,4.45,0,0,0-1.09-2.64,4.12,4.12,0,0,0-3.13-1.39h-6.61a4.12,4.12,0,0,0-3.13,1.39A4.45,4.45,0,0,0,205.71,15.81Z"/><path class="cls-2" d="M235.81,10.88a3.28,3.28,0,1,1,3.27-3.28A3.28,3.28,0,0,1,235.81,10.88Zm-7.52,4.93V26.27a1.39,1.39,0,0,0,1.17,1.4A1.37,1.37,0,0,0,231,26.3V16.91h.64v26a1.84,1.84,0,1,0,3.68,0V27.64h.8V42.91a1.85,1.85,0,1,0,3.69,0v-26h.8v9.36a1.39,1.39,0,0,0,1.16,1.4,1.37,1.37,0,0,0,1.56-1.37V15.81a4.52,4.52,0,0,0-1.09-2.64,4.12,4.12,0,0,0-3.13-1.39h-6.61a4.12,4.12,0,0,0-3.13,1.39A4.48,4.48,0,0,0,228.29,15.81Z"/><path class="cls-2" d="M32.51,54.17a3.28,3.28,0,1,1,3.28-3.27A3.26,3.26,0,0,1,32.51,54.17ZM25,59.1V69.57A1.4,1.4,0,0,0,26.16,71a1.37,1.37,0,0,0,1.56-1.38V60.21h.64v26a1.85,1.85,0,1,0,3.69,0V70.94h.8V86.2A1.87,1.87,0,0,0,34.25,88a1.84,1.84,0,0,0,2.28-1.79v-26h.81v9.36A1.4,1.4,0,0,0,38.5,71a1.37,1.37,0,0,0,1.56-1.38V59.1A4.52,4.52,0,0,0,39,56.47a4.15,4.15,0,0,0-3.13-1.39H29.22a4.15,4.15,0,0,0-3.13,1.39A4.52,4.52,0,0,0,25,59.1Z"/><path class="cls-2" d="M55.1,54.17a3.28,3.28,0,1,1,3.28-3.27A3.27,3.27,0,0,1,55.1,54.17ZM47.59,59.1V69.57A1.4,1.4,0,0,0,48.75,71a1.37,1.37,0,0,0,1.56-1.38V60.21H51v26a1.85,1.85,0,1,0,3.69,0V70.94h.8V86.2A1.87,1.87,0,0,0,56.84,88a1.84,1.84,0,0,0,2.28-1.79v-26h.8v9.36A1.41,1.41,0,0,0,61.09,71a1.37,1.37,0,0,0,1.56-1.38V59.1a4.49,4.49,0,0,0-1.1-2.63,4.11,4.11,0,0,0-3.12-1.39H51.81a4.13,4.13,0,0,0-3.13,1.39A4.52,4.52,0,0,0,47.59,59.1Z"/><path class="cls-2" d="M77.69,54.17A3.28,3.28,0,1,1,81,50.9,3.27,3.27,0,0,1,77.69,54.17ZM70.18,59.1V69.57A1.4,1.4,0,0,0,71.34,71a1.37,1.37,0,0,0,1.56-1.38V60.21h.64v26a1.85,1.85,0,1,0,3.69,0V70.94H78V86.2a1.84,1.84,0,1,0,3.68,0v-26h.8v9.36A1.41,1.41,0,0,0,83.68,71a1.37,1.37,0,0,0,1.56-1.38V59.1a4.49,4.49,0,0,0-1.1-2.63A4.12,4.12,0,0,0,81,55.08H74.4a4.12,4.12,0,0,0-3.13,1.39A4.52,4.52,0,0,0,70.18,59.1Z"/><path class="cls-2" d="M100.28,54.17a3.28,3.28,0,1,1,3.27-3.27A3.27,3.27,0,0,1,100.28,54.17ZM92.76,59.1V69.57A1.41,1.41,0,0,0,93.93,71a1.37,1.37,0,0,0,1.56-1.38V60.21h.64v26A1.87,1.87,0,0,0,97.53,88a1.84,1.84,0,0,0,2.28-1.79V70.94h.8V86.2A1.87,1.87,0,0,0,102,88a1.85,1.85,0,0,0,2.28-1.79v-26h.8v9.36a1.4,1.4,0,0,0,1.16,1.4,1.37,1.37,0,0,0,1.56-1.38V59.1a4.52,4.52,0,0,0-1.09-2.63,4.12,4.12,0,0,0-3.13-1.39H97a4.12,4.12,0,0,0-3.13,1.39A4.49,4.49,0,0,0,92.76,59.1Z"/><path class="cls-2" d="M122.87,54.17a3.28,3.28,0,1,1,3.27-3.27A3.27,3.27,0,0,1,122.87,54.17Zm-7.52,4.93V69.57a1.41,1.41,0,0,0,1.17,1.4,1.37,1.37,0,0,0,1.56-1.38V60.21h.64v26a1.84,1.84,0,1,0,3.68,0V70.94h.8V86.2a1.85,1.85,0,1,0,3.69,0v-26h.8v9.36a1.4,1.4,0,0,0,1.16,1.4,1.37,1.37,0,0,0,1.56-1.38V59.1a4.52,4.52,0,0,0-1.09-2.63,4.13,4.13,0,0,0-3.13-1.39h-6.62a4.11,4.11,0,0,0-3.12,1.39A4.49,4.49,0,0,0,115.35,59.1Z"/><path class="cls-2" d="M145.45,54.17a3.28,3.28,0,1,1,3.28-3.27A3.26,3.26,0,0,1,145.45,54.17Zm-7.51,4.93V69.57A1.41,1.41,0,0,0,139.1,71a1.37,1.37,0,0,0,1.56-1.38V60.21h.65v26a1.84,1.84,0,1,0,3.68,0V70.94h.8V86.2a1.85,1.85,0,1,0,3.69,0v-26h.8v9.36a1.4,1.4,0,0,0,1.16,1.4A1.37,1.37,0,0,0,153,69.59V59.1a4.52,4.52,0,0,0-1.09-2.63,4.15,4.15,0,0,0-3.13-1.39h-6.62A4.15,4.15,0,0,0,139,56.47,4.52,4.52,0,0,0,137.94,59.1Z"/><path class="cls-2" d="M168,54.17a3.28,3.28,0,1,1,3.28-3.27A3.26,3.26,0,0,1,168,54.17Zm-7.51,4.93V69.57a1.4,1.4,0,0,0,1.16,1.4,1.37,1.37,0,0,0,1.56-1.38V60.21h.64v26a1.85,1.85,0,1,0,3.69,0V70.94h.8V86.2a1.87,1.87,0,0,0,1.4,1.83,1.84,1.84,0,0,0,2.28-1.79v-26h.8v9.36A1.41,1.41,0,0,0,174,71a1.37,1.37,0,0,0,1.56-1.38V59.1a4.52,4.52,0,0,0-1.09-2.63,4.15,4.15,0,0,0-3.13-1.39h-6.62a4.13,4.13,0,0,0-3.13,1.39A4.52,4.52,0,0,0,160.53,59.1Z"/><path class="cls-2" d="M190.63,54.17a3.28,3.28,0,1,1,3.28-3.27A3.27,3.27,0,0,1,190.63,54.17Zm-7.51,4.93V69.57a1.4,1.4,0,0,0,1.16,1.4,1.37,1.37,0,0,0,1.56-1.38V60.21h.64v26a1.85,1.85,0,1,0,3.69,0V70.94h.8V86.2a1.84,1.84,0,1,0,3.68,0v-26h.8v9.36a1.41,1.41,0,0,0,1.17,1.4,1.37,1.37,0,0,0,1.56-1.38V59.1a4.49,4.49,0,0,0-1.1-2.63A4.12,4.12,0,0,0,194,55.08h-6.61a4.12,4.12,0,0,0-3.13,1.39A4.52,4.52,0,0,0,183.12,59.1Z"/><path class="cls-2" d="M213.22,54.17a3.28,3.28,0,1,1,3.27-3.27A3.27,3.27,0,0,1,213.22,54.17Zm-7.51,4.93V69.57a1.4,1.4,0,0,0,1.16,1.4,1.37,1.37,0,0,0,1.56-1.38V60.21h.64v26a1.87,1.87,0,0,0,1.4,1.83,1.84,1.84,0,0,0,2.28-1.79V70.94h.81V86.2a1.84,1.84,0,1,0,3.68,0v-26h.8v9.36a1.41,1.41,0,0,0,1.17,1.4,1.36,1.36,0,0,0,1.55-1.38V59.1a4.45,4.45,0,0,0-1.09-2.63,4.12,4.12,0,0,0-3.13-1.39h-6.61a4.12,4.12,0,0,0-3.13,1.39A4.45,4.45,0,0,0,205.71,59.1Z"/><path class="cls-2" d="M235.81,54.17a3.28,3.28,0,1,1,3.27-3.27A3.27,3.27,0,0,1,235.81,54.17Zm-7.52,4.93V69.57a1.41,1.41,0,0,0,1.17,1.4A1.37,1.37,0,0,0,231,69.59V60.21h.64v26a1.87,1.87,0,0,0,1.4,1.83,1.84,1.84,0,0,0,2.28-1.79V70.94h.8V86.2a1.85,1.85,0,1,0,3.69,0v-26h.8v9.36a1.4,1.4,0,0,0,1.16,1.4,1.37,1.37,0,0,0,1.56-1.38V59.1a4.52,4.52,0,0,0-1.09-2.63,4.12,4.12,0,0,0-3.13-1.39h-6.61a4.12,4.12,0,0,0-3.13,1.39A4.49,4.49,0,0,0,228.29,59.1Z"/><path class="cls-2" d="M257.45,10.88a3.28,3.28,0,1,1,3.28-3.28A3.27,3.27,0,0,1,257.45,10.88Zm-7.51,4.93V26.27a1.39,1.39,0,0,0,1.16,1.4,1.37,1.37,0,0,0,1.56-1.37V16.91h.65v26A1.84,1.84,0,1,0,257,43V27.64h.8V42.91a1.85,1.85,0,1,0,3.69,0v-26h.8v9.36a1.39,1.39,0,0,0,1.16,1.4A1.37,1.37,0,0,0,265,26.3V15.81a4.52,4.52,0,0,0-1.09-2.64,4.15,4.15,0,0,0-3.13-1.39h-6.62A4.15,4.15,0,0,0,251,13.17,4.52,4.52,0,0,0,249.94,15.81Z"/></g></svg>