<svg xmlns="http://www.w3.org/2000/svg" viewBox="0 0 290 240"><defs><style>.cls-1{fill:#00684d;}.cls-2{fill:#cce1db;}.cls-3{fill:#212121;}</style></defs><title>service_farmnote_connect_img_01</title><g id="コンテンツ"><path class="cls-1" d="M221.65,19.62a89.56,89.56,0,0,0-52.9-17.2v90Z"/><path class="cls-2" d="M221.65,19.62l-52.9,72.8v-90a90,90,0,1,0,52.9,17.2Z"/><path class="cls-3" d="M43.94,99.05a21.85,21.85,0,0,1,4.39,3.57l-1.38.84a13.41,13.41,0,0,0-1.07-1.11c-5,.14-10.17.27-13.63.3l0-1.47c1.35,0,3,0,4.82,0l.26-.14a20.43,20.43,0,0,0-3.57-2.26l1.28-1a11.66,11.66,0,0,1,1.21.63c.57-.47,1.19-1,1.71-1.53H32.49V95.41h6.82V94H41v1.45H48v1.43H39.69L40,97c-.83.72-1.75,1.47-2.58,2.09.47.3.94.62,1.32.91A33.93,33.93,0,0,0,42.62,97l1.59.68a52.22,52.22,0,0,1-4.79,3.49l5-.05a19.73,19.73,0,0,0-1.8-1.3Zm-9.78,4.49H46.37v6.85H44.62v-.54h-8.8v.62H34.16Zm1.66,1.31v1.26h3.51v-1.26Zm3.51,3.69v-1.32H35.82v1.32Zm5.29-3.69H40.91v1.26h3.71Zm0,3.69v-1.32H40.91v1.32Z"/><path class="cls-3" d="M66.28,99.12v1.46H53.06V102c0,2.41-.3,6.07-1.92,8.48a7.92,7.92,0,0,0-1.28-1.06c1.44-2.22,1.6-5.3,1.6-7.42V99.12h3.37A10,10,0,0,0,54,97l.64-.17H51.24V95.41h6.2V93.94h1.67v1.47h6.27v1.46H62.82l.24.06c-.45.77-.9,1.58-1.28,2.19Zm-5.73,9.58h5.64v1.43H53.51V108.7h5.4v-2H55v-1.29h3.92v-1.66H55.84a10,10,0,0,1-1.23,1.58,10.23,10.23,0,0,0-1.33-.81,8.73,8.73,0,0,0,2.28-3.62l1.5.35c-.14.39-.31.79-.49,1.17h2.34V101h1.64v1.48h4.61v1.33H60.55v1.66h4.13v1.29H60.55ZM55.66,96.87a7.72,7.72,0,0,1,.82,2.07l-.64.18h4.84L60.23,99a21.57,21.57,0,0,0,.83-2.11Z"/><path class="cls-3" d="M76.25,100.13a2.09,2.09,0,1,1-2.09,2.09A2.1,2.1,0,0,1,76.25,100.13Z"/><path class="cls-3" d="M101.59,96.12a14.71,14.71,0,0,1-2.46,4.8,10.16,10.16,0,0,0,3.67,2.27,6.65,6.65,0,0,0-1,1.32l-.26-.11v6H100v-.68H96.43v.7H95v-6c-.16.09-.31.18-.47.25a6.65,6.65,0,0,0-.84-1.09v6.58H92.29v-1H87.73v1.24H86.45V98.21h2V96.15H86.2v-1.4h7.58v1.4h-2.2v2.06h2.06v1a12.36,12.36,0,0,0,2.86-5.26l1.58.23c-.16.51-.34,1-.54,1.51h2.79l.27-.07Zm-12,4.79a4.34,4.34,0,0,1-1.23,3.29,3.14,3.14,0,0,0-.61-.5v1.38h4.56v-1.76H91.4c-.77,0-1-.2-1-1.15V99.63h-.84Zm-1.84-1.28v3.89a3.42,3.42,0,0,0,.94-2.63V99.63Zm4.56,8.24V106.4H87.73v1.47Zm-2.74-9.66h.86V96.15h-.86Zm2.74,1.42h-1v2.52c0,.21,0,.23.22.23H92c.17,0,.22,0,.26,0Zm1.35,3.74a11.87,11.87,0,0,0,3.52-2.5,12.91,12.91,0,0,1-1.27-2,13.94,13.94,0,0,1-1.41,1.68,5.16,5.16,0,0,0-.84-.85Zm7,.58A11.15,11.15,0,0,1,98.16,102,13.88,13.88,0,0,1,95.83,104Zm-.65,4.36v-2.94H96.43v2.94Zm-3.08-11.2-.19.37a11.12,11.12,0,0,0,1.4,2.31,11,11,0,0,0,1.53-2.68Z"/><path class="cls-3" d="M119.47,106.88a26.7,26.7,0,0,1-3.08,1.23,14,14,0,0,0,4.16.93,5.55,5.55,0,0,0-1,1.43,11.17,11.17,0,0,1-5.86-2.2l0,1.15c-2.29.31-4.68.6-6.43.81l-.2-1.4c.45,0,1-.09,1.52-.16v-2.56h-1.52a9.27,9.27,0,0,1-1.71,4.39,6.57,6.57,0,0,0-1.42-.84c1.55-1.91,1.73-4.54,1.73-6.4V101h14.06v1.24H107.35v1.08c0,.49,0,1-.07,1.6h13v1.21h-1.69Zm-.54-6.62h-13V95.13h3.67V94h1.64v1.17h2.24V94h1.65v1.17h3.84Zm-11.51-3.1h2.14v-1h-2.14Zm0,2h2.14v-1h-2.14Zm.87,4.91V103h10v1.08Zm2,4.42c1-.11,2.16-.26,3.27-.38a7.59,7.59,0,0,1-1.58-2h-1.69Zm.93-12.28v1h2.24v-1Zm0,2v1h2.24v-1Zm2.43,7.92a5.75,5.75,0,0,0,1.5,1.35,26.66,26.66,0,0,0,2.79-1.35Zm3.7-9.9h-2.24v1h2.24Zm0,2h-2.24v1h2.24Z"/><path class="cls-3" d="M132.5,106.31a16.74,16.74,0,0,0,6.1,2.45,7.31,7.31,0,0,0-1.11,1.49,16.16,16.16,0,0,1-6.45-3.38v3.61H129.4V107a17.88,17.88,0,0,1-6.39,3.24,7.41,7.41,0,0,0-1.1-1.42,17.66,17.66,0,0,0,6.07-2.5h-5.56V104.9h7v-1.1h-5.31v-1.26h5.31v-1.08h-6.19v-1.33h3.69a8.94,8.94,0,0,0-.76-1.64l.43-.07h-4.08V97h2.66a13.19,13.19,0,0,0-1.31-2.43l1.46-.49a13.23,13.23,0,0,1,1.44,2.57l-.92.35h2V93.94h1.57V97h1.78V93.94h1.58V97h2L134,96.8a14.83,14.83,0,0,0,1.26-2.67l1.73.44A27.21,27.21,0,0,1,135.49,97h2.59v1.4H134.6c-.34.61-.7,1.21-1,1.71h3.81v1.33H131v1.08h5.53v1.26H131v1.1h7.09v1.41Zm-4.63-7.89a7.51,7.51,0,0,1,.78,1.6l-.53.11h3.8a16,16,0,0,0,.79-1.71Z"/><path class="cls-3" d="M151.24,101.9a12.44,12.44,0,0,0,5.33,2.81,7,7,0,0,0-1.14,1.42,14.09,14.09,0,0,1-3.38-1.64v6h-1.73V104.2h1.33a11.46,11.46,0,0,1-2.36-2.3h-1.92a12.15,12.15,0,0,1-2.4,2.28h1.5v1.15c0,1.71-.44,3.91-4,5.28a5.27,5.27,0,0,0-1.14-1.37c3.06-1.06,3.4-2.7,3.4-4v-.94a15.44,15.44,0,0,1-3.58,1.86,7.06,7.06,0,0,0-1.11-1.39,13.41,13.41,0,0,0,5.25-2.91h-3.26V94.55h12.46v7.35Zm-7.53-4.34h3.67V95.92h-3.67Zm0,3h3.67V98.85h-3.67Zm9.08-4.61h-3.71v1.64h3.71Zm0,2.93h-3.71v1.68h3.71Z"/><path class="cls-3" d="M34.22,131.51A16.8,16.8,0,0,1,33,136.1a6.62,6.62,0,0,0-1.28-.63,13.64,13.64,0,0,0,1.06-4.22Zm3.33-4.81a15.45,15.45,0,0,1,1.73,3.69L38,131a7.79,7.79,0,0,0-.33-1l-1.33.09v7.42H34.85v-7.33l-2.81.17-.15-1.48,1.26,0c.35-.43.69-.9,1.05-1.4a19.42,19.42,0,0,0-2.27-2.52l.81-1.12.49.43A21.09,21.09,0,0,0,34.7,121l1.51.54c-.64,1.22-1.4,2.64-2.05,3.62a8.7,8.7,0,0,1,.88,1A33,33,0,0,0,36.86,123l1.43.61a55.71,55.71,0,0,1-3.59,5.11l2.4-.09c-.24-.5-.49-1-.76-1.44Zm.45,4.46a20.34,20.34,0,0,1,1.17,3.41l-1.33.47a20.11,20.11,0,0,0-1.1-3.46Zm10.15-6.26c-.3,7.94-.54,10.75-1.29,11.67a1.94,1.94,0,0,1-1.59.82,16.47,16.47,0,0,1-2.77,0,3.9,3.9,0,0,0-.56-1.67c1.17.09,2.25.11,2.68.11a.89.89,0,0,0,.78-.31c.57-.58.86-3.24,1.1-9.85H41a13.23,13.23,0,0,1-1.58,2.41,12.35,12.35,0,0,0-1.48-1,15.06,15.06,0,0,0,3.12-6.16l1.71.39a23.17,23.17,0,0,1-1,2.76h6.37Zm-5.53,8a17.84,17.84,0,0,0-2.3-4.14l1.35-.67a17.42,17.42,0,0,1,2.43,4.05Z"/><path class="cls-3" d="M55.29,134.35h2.9v-9.22H55.82v-1.31a8.26,8.26,0,0,0,2.88-1h1.56v11.54h2.6v1.71H55.29Z"/><path class="cls-3" d="M64.85,129.38c0-4.59,1.68-6.82,4.29-6.82s4.28,2.25,4.28,6.82-1.69,6.92-4.28,6.92S64.85,134,64.85,129.38Zm6.59,0c0-3.8-1-5.18-2.3-5.18s-2.31,1.38-2.31,5.18,1,5.28,2.31,5.28S71.44,133.22,71.44,129.38Z"/><path class="cls-3" d="M75.44,126.5c0-2.65,1.26-4.18,3.11-4.18s3.12,1.53,3.12,4.18-1.25,4.23-3.12,4.23S75.44,129.18,75.44,126.5Zm4.71,0c0-2-.65-3-1.6-3s-1.58.92-1.58,3,.66,3,1.58,3S80.15,128.55,80.15,126.5Zm6.11-4.18h1.31l-7.29,13.8H79Zm-1.39,9.56c0-2.66,1.28-4.17,3.13-4.17s3.12,1.51,3.12,4.17-1.26,4.24-3.12,4.24S84.87,134.57,84.87,131.88Zm4.74,0c0-2-.67-2.95-1.61-2.95s-1.6.9-1.6,2.95.67,3,1.6,3S89.61,133.94,89.61,131.88Z"/><path class="cls-3" d="M100.89,135a9.37,9.37,0,0,0,1.58-.25,5.13,5.13,0,0,0,4.33-5.06,4.72,4.72,0,0,0-4.29-5,41.55,41.55,0,0,1-1.06,5c-1.08,3.63-2.56,5.67-4.34,5.67s-3.39-2-3.39-5c0-4,3.51-7.4,8-7.4a6.61,6.61,0,0,1,7,6.73c0,3.73-2.39,6.32-6.75,6.94Zm-1.26-5.65a24.56,24.56,0,0,0,1-4.59,6,6,0,0,0-5.08,5.51c0,2.05.92,3,1.64,3S98.8,132.06,99.63,129.31Z"/><path class="cls-3" d="M117,128.59l-1,1.6a45.14,45.14,0,0,0-4-2.52l1-1.55C114.14,126.73,116.19,128,117,128.59Zm1.82,4.23a18.49,18.49,0,0,0,6.9-6.68l1.08,1.91a20.75,20.75,0,0,1-13,8.68l-1.06-1.86A19.51,19.51,0,0,0,118.85,132.82Zm.89-8.21-1.07,1.55c-.91-.67-2.84-2-4-2.58l1-1.54C116.85,122.67,118.89,124,119.74,124.61Z"/><path class="cls-3" d="M142.31,134.57a9.26,9.26,0,0,0,1.28-.11v1.87c-.38,0-1-.05-1.28-.05h-10c-.41,0-.9,0-1.37.05v-1.87a13.5,13.5,0,0,0,1.37.11h4V128.3h-3.08c-.35,0-1,0-1.34.06v-1.81a10.58,10.58,0,0,0,1.32.09h8.26a9.52,9.52,0,0,0,1.34-.09v1.81c-.42,0-.92-.06-1.34-.06h-3.31v6.27Z"/><path class="cls-3" d="M163.23,123.89c-.17.2-.45.54-.6.76a17.78,17.78,0,0,1-4.41,5l-1.49-1.21a11.21,11.21,0,0,0,3.67-3.73h-9.89c-.7,0-1.33.06-2.1.11v-2a16,16,0,0,0,2.1.16h10.07a9.63,9.63,0,0,0,1.51-.12Zm-7.28,2.4c0,4.69-.27,8.15-5,10.58l-1.66-1.35a7.07,7.07,0,0,0,1.73-.88c2.57-1.66,3-3.93,3-6.92a7.92,7.92,0,0,0-.11-1.43Z"/><path class="cls-3" d="M115.56,217.19l4.62-4.62.41.4L116,217.6l4.63,4.62-.41.41L115.56,218l-4.64,4.64-.4-.41,4.63-4.63L110.53,213l.41-.4Zm-2.94.41a1.05,1.05,0,0,1-2.1,0,1.05,1.05,0,0,1,2.1,0Zm2.94-2.95a1.05,1.05,0,1,1,0-2.1,1.05,1.05,0,1,1,0,2.1Zm0,5.89a1,1,0,1,1-1,1.05A1.06,1.06,0,0,1,115.56,220.54Zm2.94-2.94a1,1,0,1,1,1,1.05A1.06,1.06,0,0,1,118.5,217.6Z"/><path class="cls-3" d="M123.17,222c3-2.69,4.61-4.69,4.61-6.39A1.68,1.68,0,0,0,126,213.7a2.79,2.79,0,0,0-2,1.15l-.91-.89a4,4,0,0,1,3.13-1.55,2.92,2.92,0,0,1,3.11,3.1c0,2-1.58,4.05-3.76,6.13.53,0,1.17-.09,1.68-.09h2.57v1.37h-6.65Z"/><path class="cls-3" d="M131.19,217.72c0-3.57,1.31-5.31,3.34-5.31s3.33,1.75,3.33,5.31-1.32,5.38-3.33,5.38S131.19,221.31,131.19,217.72Zm5.13,0c0-2.95-.74-4-1.79-4s-1.8,1.08-1.8,4,.75,4.11,1.8,4.11S136.32,220.71,136.32,217.72Z"/><path class="cls-3" d="M139.13,222c3-2.69,4.61-4.69,4.61-6.39A1.68,1.68,0,0,0,142,213.7a2.79,2.79,0,0,0-2,1.15l-.91-.89a4,4,0,0,1,3.13-1.55,2.92,2.92,0,0,1,3.11,3.1c0,2-1.58,4.05-3.76,6.13.53,0,1.17-.09,1.68-.09h2.57v1.37h-6.65Z"/><path class="cls-3" d="M147.15,217.72c0-3.57,1.31-5.31,3.34-5.31s3.33,1.75,3.33,5.31-1.32,5.38-3.33,5.38S147.15,221.31,147.15,217.72Zm5.13,0c0-2.95-.74-4-1.79-4s-1.8,1.08-1.8,4,.75,4.11,1.8,4.11S152.28,220.71,152.28,217.72Z"/><path class="cls-3" d="M171.3,220.93h-4.92V224H165v-3.1h-6.37v-1.26h2.26V216H165V214h-3.2a13.34,13.34,0,0,1-2,2.66,11.44,11.44,0,0,0-1.13-.84,11.51,11.51,0,0,0,3-4.75l1.32.35c-.17.43-.37.9-.55,1.32h8.11V214h-4.23V216h3.91v1.22h-3.91v2.48h4.92ZM165,219.67v-2.48h-2.81v2.48Z"/><path class="cls-3" d="M175.85,221.73l.77-1a3.3,3.3,0,0,0,2.41,1.11,2,2,0,0,0,2.05-2.2,1.91,1.91,0,0,0-2-2.16,2.76,2.76,0,0,0-1.66.59l-.78-.52.31-4.89h5.22V214h-3.82l-.24,2.65a2.82,2.82,0,0,1,1.41-.37,3,3,0,0,1,3.14,3.28,3.4,3.4,0,0,1-3.47,3.57A4.58,4.58,0,0,1,175.85,221.73Z"/><path class="cls-3" d="M198.51,222.26c0,.84-.22,1.25-.78,1.46a9.26,9.26,0,0,1-3,.26,5.5,5.5,0,0,0-.56-1.37c1.09.06,2.21,0,2.55,0s.42-.11.42-.41v-2.45h-6.36a7.77,7.77,0,0,1-2.4,4.26,4.7,4.7,0,0,0-1-.95c2.18-1.88,2.39-4.63,2.39-6.82v-4.4h8.73Zm-1.37-3.74v-2.07h-6a19.19,19.19,0,0,1-.12,2.07Zm-6-5.39v2.07h6v-2.07Z"/><path class="cls-3" d="M206.73,220.47c-1.75.53-3.62,1.06-5,1.47l-.32-1.25c.59-.12,1.32-.32,2.1-.53V217h-1.68v-1.2h1.68v-2.73h-1.82v-1.21h4.8v1.21h-1.72v2.73h1.58V217h-1.58v2.79l1.79-.51Zm6.37,2.34c.29,0,.35-.21.39-1.63a3.26,3.26,0,0,0,1.09.49c-.11,1.79-.42,2.26-1.33,2.26H212c-1.12,0-1.38-.37-1.38-1.53v-3H209.5c-.25,2.24-.95,3.79-3.8,4.66A3.6,3.6,0,0,0,205,223c2.5-.65,3-1.84,3.24-3.59h-1.14v-7.71h6.65v7.71h-1.84v2.94c0,.38.06.42.35.42ZM208.29,214h4.15v-1.16h-4.15Zm0,2.19h4.15V215h-4.15Zm0,2.18h4.15v-1.17h-4.15Z"/><path class="cls-3" d="M228.08,213.21v1.25h-7.54a16.75,16.75,0,0,1-1.66,2.81V224h-1.31v-5.21a12.3,12.3,0,0,1-1.45,1.22,7.92,7.92,0,0,0-.65-1.22,11.45,11.45,0,0,0,3.6-4.33h-3.22v-1.25h3.78a13.47,13.47,0,0,0,.69-2.06l1.36.34c-.18.57-.38,1.15-.6,1.72Zm-3.53,9.26h3.52v1.22H219.7v-1.22h3.53v-3.61h-3v-1.21h3v-2.52h1.32v2.52h3v1.21h-3Z"/></g></svg>