<svg xmlns="http://www.w3.org/2000/svg" viewBox="0 0 290 240"><defs><style>.cls-1{fill:#b2d2ca;}.cls-2{fill:#212121;}</style></defs><title>service_farmnote_connect_img_02</title><g id="コンテンツ"><path class="cls-1" d="M10.66,7.4a2.49,2.49,0,1,1,2.49-2.49A2.48,2.48,0,0,1,10.66,7.4ZM5,11.15v8a1,1,0,1,0,2.07,0V12H7.5V31.75a1.42,1.42,0,0,0,1.07,1.39,1.4,1.4,0,0,0,1.73-1.36V20.15h.61v11.6A1.42,1.42,0,0,0,12,33.14a1.4,1.4,0,0,0,1.73-1.36V12h.61v7.12a1.06,1.06,0,0,0,.89,1.06,1,1,0,0,0,1.18-1v-8a3.4,3.4,0,0,0-.83-2,3.13,3.13,0,0,0-2.38-1.06h-5A3.12,3.12,0,0,0,5.78,9.15,3.34,3.34,0,0,0,5,11.15Z"/><path class="cls-1" d="M29.85,7.4a2.49,2.49,0,1,1,2.49-2.49A2.48,2.48,0,0,1,29.85,7.4Zm-5.71,3.75v8a1,1,0,1,0,2.07,0V12h.48V31.75a1.42,1.42,0,0,0,1.07,1.39,1.4,1.4,0,0,0,1.73-1.36V20.15h.61v11.6a1.42,1.42,0,0,0,1.07,1.39,1.4,1.4,0,0,0,1.73-1.36V12h.61v7.12a1.06,1.06,0,0,0,.89,1.06,1,1,0,0,0,1.18-1v-8a3.4,3.4,0,0,0-.83-2,3.13,3.13,0,0,0-2.38-1.06h-5A3.12,3.12,0,0,0,25,9.15,3.34,3.34,0,0,0,24.14,11.15Z"/><path class="cls-1" d="M49,7.4a2.49,2.49,0,1,1,2.49-2.49A2.48,2.48,0,0,1,49,7.4Zm-5.71,3.75v8a1,1,0,1,0,2.07,0V12h.48V31.75A1.42,1.42,0,0,0,47,33.14a1.4,1.4,0,0,0,1.73-1.36V20.15h.61v11.6a1.42,1.42,0,0,0,1.07,1.39,1.4,1.4,0,0,0,1.73-1.36V12h.61v7.12a1.06,1.06,0,0,0,.89,1.06,1,1,0,0,0,1.18-1v-8a3.4,3.4,0,0,0-.83-2,3.13,3.13,0,0,0-2.38-1.06h-5a3.12,3.12,0,0,0-2.37,1.06A3.34,3.34,0,0,0,43.33,11.15Z"/><path class="cls-1" d="M68.23,7.4a2.49,2.49,0,1,1,2.49-2.49A2.48,2.48,0,0,1,68.23,7.4Zm-5.71,3.75v8a1,1,0,1,0,2.07,0V12h.48V31.75a1.42,1.42,0,0,0,1.07,1.39,1.4,1.4,0,0,0,1.73-1.36V20.15h.61v11.6a1.42,1.42,0,0,0,1.07,1.39,1.4,1.4,0,0,0,1.73-1.36V12h.61v7.12a1.06,1.06,0,0,0,.89,1.06,1,1,0,0,0,1.18-1v-8a3.4,3.4,0,0,0-.83-2,3.13,3.13,0,0,0-2.38-1.06h-5a3.13,3.13,0,0,0-2.38,1.06A3.34,3.34,0,0,0,62.52,11.15Z"/><path class="cls-1" d="M87.42,7.4a2.49,2.49,0,1,1,2.49-2.49A2.48,2.48,0,0,1,87.42,7.4Zm-5.71,3.75v8a1,1,0,1,0,2.07,0V12h.48V31.75a1.42,1.42,0,0,0,1.07,1.39,1.4,1.4,0,0,0,1.73-1.36V20.15h.61v11.6a1.42,1.42,0,0,0,1.07,1.39,1.4,1.4,0,0,0,1.73-1.36V12h.61v7.12A1.06,1.06,0,0,0,92,20.17a1,1,0,0,0,1.18-1v-8a3.34,3.34,0,0,0-.83-2,3.13,3.13,0,0,0-2.38-1.06h-5a3.13,3.13,0,0,0-2.38,1.06A3.34,3.34,0,0,0,81.71,11.15Z"/><path class="cls-1" d="M106.61,7.4a2.49,2.49,0,1,1,2.49-2.49A2.48,2.48,0,0,1,106.61,7.4Zm-5.71,3.75v8a1,1,0,1,0,2.07,0V12h.48V31.75a1.42,1.42,0,0,0,1.07,1.39,1.4,1.4,0,0,0,1.73-1.36V20.15h.61v11.6a1.42,1.42,0,0,0,1.07,1.39,1.4,1.4,0,0,0,1.73-1.36V12h.61v7.12a1.06,1.06,0,0,0,.89,1.06,1,1,0,0,0,1.18-1v-8a3.34,3.34,0,0,0-.83-2,3.13,3.13,0,0,0-2.38-1.06h-5a3.13,3.13,0,0,0-2.38,1.06A3.34,3.34,0,0,0,100.9,11.15Z"/><path class="cls-1" d="M125.8,7.4a2.49,2.49,0,1,1,2.49-2.49A2.48,2.48,0,0,1,125.8,7.4Zm-5.71,3.75v8a1,1,0,1,0,2.07,0V12h.48V31.75a1.42,1.42,0,0,0,1.07,1.39,1.4,1.4,0,0,0,1.73-1.36V20.15h.61v11.6a1.42,1.42,0,0,0,1.07,1.39,1.4,1.4,0,0,0,1.73-1.36V12h.61v7.12a1.06,1.06,0,0,0,.89,1.06,1,1,0,0,0,1.18-1v-8a3.34,3.34,0,0,0-.83-2,3.13,3.13,0,0,0-2.38-1.06h-5a3.13,3.13,0,0,0-2.38,1.06A3.34,3.34,0,0,0,120.09,11.15Z"/><path class="cls-1" d="M145,7.4a2.49,2.49,0,1,1,2.49-2.49A2.48,2.48,0,0,1,145,7.4Zm-5.71,3.75v8a1,1,0,1,0,2.07,0V12h.48V31.75a1.42,1.42,0,0,0,1.07,1.39,1.4,1.4,0,0,0,1.73-1.36V20.15h.61v11.6a1.42,1.42,0,0,0,1.07,1.39A1.4,1.4,0,0,0,148,31.78V12h.61v7.12a1.06,1.06,0,0,0,.89,1.06,1,1,0,0,0,1.18-1v-8a3.34,3.34,0,0,0-.83-2,3.13,3.13,0,0,0-2.38-1.06h-5a3.13,3.13,0,0,0-2.38,1.06A3.34,3.34,0,0,0,139.28,11.15Z"/><path class="cls-1" d="M164.18,7.4a2.49,2.49,0,1,1,2.49-2.49A2.48,2.48,0,0,1,164.18,7.4Zm-5.71,3.75v8a1,1,0,1,0,2.07,0V12H161V31.75a1.42,1.42,0,0,0,1.07,1.39,1.4,1.4,0,0,0,1.73-1.36V20.15h.61v11.6a1.42,1.42,0,0,0,1.07,1.39,1.4,1.4,0,0,0,1.73-1.36V12h.61v7.12a1.06,1.06,0,0,0,.89,1.06,1,1,0,0,0,1.18-1v-8a3.34,3.34,0,0,0-.83-2,3.13,3.13,0,0,0-2.38-1.06h-5a3.13,3.13,0,0,0-2.38,1.06A3.34,3.34,0,0,0,158.47,11.15Z"/><path class="cls-1" d="M183.37,7.4a2.49,2.49,0,1,1,2.49-2.49A2.48,2.48,0,0,1,183.37,7.4Zm-5.71,3.75v8a1,1,0,1,0,2.07,0V12h.48V31.75a1.42,1.42,0,0,0,1.07,1.39A1.4,1.4,0,0,0,183,31.78V20.15h.61v11.6a1.42,1.42,0,0,0,1.07,1.39,1.4,1.4,0,0,0,1.73-1.36V12H187v7.12a1.06,1.06,0,0,0,.89,1.06,1,1,0,0,0,1.18-1v-8a3.34,3.34,0,0,0-.83-2,3.13,3.13,0,0,0-2.38-1.06h-5a3.13,3.13,0,0,0-2.38,1.06A3.34,3.34,0,0,0,177.66,11.15Z"/><path class="cls-1" d="M202.56,7.4a2.49,2.49,0,1,1,2.49-2.49A2.48,2.48,0,0,1,202.56,7.4Zm-5.71,3.75v8a1,1,0,1,0,2.07,0V12h.48V31.75a1.42,1.42,0,0,0,1.07,1.39,1.4,1.4,0,0,0,1.73-1.36V20.15h.61v11.6a1.43,1.43,0,0,0,1.07,1.39,1.4,1.4,0,0,0,1.73-1.36V12h.61v7.12a1.06,1.06,0,0,0,.89,1.06,1,1,0,0,0,1.18-1v-8a3.34,3.34,0,0,0-.83-2,3.13,3.13,0,0,0-2.38-1.06h-5a3.13,3.13,0,0,0-2.38,1.06A3.34,3.34,0,0,0,196.85,11.15Z"/><path class="cls-1" d="M221.75,7.4a2.49,2.49,0,1,1,2.49-2.49A2.48,2.48,0,0,1,221.75,7.4ZM216,11.15v8a1,1,0,1,0,2.07,0V12h.48V31.75a1.42,1.42,0,0,0,1.07,1.39,1.4,1.4,0,0,0,1.73-1.36V20.15H222v11.6a1.43,1.43,0,0,0,1.07,1.39,1.41,1.41,0,0,0,1.74-1.36V12h.6v7.12a1.06,1.06,0,0,0,.89,1.06,1,1,0,0,0,1.18-1v-8a3.34,3.34,0,0,0-.83-2,3.13,3.13,0,0,0-2.38-1.06h-5a3.13,3.13,0,0,0-2.38,1.06A3.4,3.4,0,0,0,216,11.15Z"/><path class="cls-1" d="M240.94,7.4a2.49,2.49,0,1,1,2.49-2.49A2.48,2.48,0,0,1,240.94,7.4Zm-5.71,3.75v8a1,1,0,1,0,2.07,0V12h.48V31.75a1.42,1.42,0,0,0,1.07,1.39,1.4,1.4,0,0,0,1.73-1.36V20.15h.61v11.6a1.43,1.43,0,0,0,1.07,1.39A1.41,1.41,0,0,0,244,31.78V12h.6v7.12a1.06,1.06,0,0,0,.89,1.06,1,1,0,0,0,1.18-1v-8a3.34,3.34,0,0,0-.83-2,3.12,3.12,0,0,0-2.37-1.06h-5a3.13,3.13,0,0,0-2.38,1.06A3.4,3.4,0,0,0,235.23,11.15Z"/><path class="cls-1" d="M260.13,7.4a2.49,2.49,0,1,1,2.49-2.49A2.48,2.48,0,0,1,260.13,7.4Zm-5.71,3.75v8a1,1,0,1,0,2.07,0V12H257V31.75A1.43,1.43,0,0,0,258,33.14a1.41,1.41,0,0,0,1.74-1.36V20.15h.6v11.6a1.43,1.43,0,0,0,1.07,1.39,1.41,1.41,0,0,0,1.74-1.36V12h.6v7.12a1.06,1.06,0,0,0,.89,1.06,1,1,0,0,0,1.18-1v-8a3.34,3.34,0,0,0-.83-2,3.12,3.12,0,0,0-2.37-1.06h-5a3.13,3.13,0,0,0-2.38,1.06A3.4,3.4,0,0,0,254.42,11.15Z"/><path class="cls-1" d="M279.32,7.4a2.49,2.49,0,1,1,2.49-2.49A2.48,2.48,0,0,1,279.32,7.4Zm-5.71,3.75v8a1,1,0,1,0,2.07,0V12h.48V31.75a1.43,1.43,0,0,0,1.07,1.39A1.41,1.41,0,0,0,279,31.78V20.15h.6v11.6a1.43,1.43,0,0,0,1.07,1.39,1.41,1.41,0,0,0,1.74-1.36V12h.6v7.12a1.06,1.06,0,0,0,.89,1.06,1,1,0,0,0,1.18-1v-8a3.34,3.34,0,0,0-.83-2,3.12,3.12,0,0,0-2.37-1.06h-5a3.13,3.13,0,0,0-2.38,1.06A3.4,3.4,0,0,0,273.61,11.15Z"/><path class="cls-1" d="M10.66,43.53A2.5,2.5,0,1,1,13.15,41,2.49,2.49,0,0,1,10.66,43.53ZM5,47.27v8a1,1,0,1,0,2.07,0V48.11H7.5V67.87a1.41,1.41,0,0,0,1.07,1.39A1.39,1.39,0,0,0,10.3,67.9V56.27h.61v11.6A1.41,1.41,0,0,0,12,69.26a1.39,1.39,0,0,0,1.73-1.36V48.11h.61v7.12a1.06,1.06,0,0,0,.89,1.06,1,1,0,0,0,1.18-1v-8a3.45,3.45,0,0,0-.83-2,3.13,3.13,0,0,0-2.38-1.06h-5a3.12,3.12,0,0,0-2.37,1.06A3.38,3.38,0,0,0,5,47.27Z"/><path class="cls-1" d="M29.85,43.53A2.5,2.5,0,1,1,32.34,41,2.49,2.49,0,0,1,29.85,43.53Zm-5.71,3.74v8a1,1,0,1,0,2.07,0V48.11h.48V67.87a1.41,1.41,0,0,0,1.07,1.39,1.39,1.39,0,0,0,1.73-1.36V56.27h.61v11.6a1.41,1.41,0,0,0,1.07,1.39A1.39,1.39,0,0,0,32.9,67.9V48.11h.61v7.12a1.06,1.06,0,0,0,.89,1.06,1,1,0,0,0,1.18-1v-8a3.45,3.45,0,0,0-.83-2,3.13,3.13,0,0,0-2.38-1.06h-5A3.12,3.12,0,0,0,25,45.27,3.38,3.38,0,0,0,24.14,47.27Z"/><path class="cls-1" d="M49,43.53A2.5,2.5,0,1,1,51.53,41,2.49,2.49,0,0,1,49,43.53Zm-5.71,3.74v8a1,1,0,1,0,2.07,0V48.11h.48V67.87A1.41,1.41,0,0,0,47,69.26a1.39,1.39,0,0,0,1.73-1.36V56.27h.61v11.6a1.41,1.41,0,0,0,1.07,1.39,1.39,1.39,0,0,0,1.73-1.36V48.11h.61v7.12a1.06,1.06,0,0,0,.89,1.06,1,1,0,0,0,1.18-1v-8a3.45,3.45,0,0,0-.83-2,3.13,3.13,0,0,0-2.38-1.06h-5a3.12,3.12,0,0,0-2.37,1.06A3.38,3.38,0,0,0,43.33,47.27Z"/><path class="cls-1" d="M68.23,43.53A2.5,2.5,0,1,1,70.72,41,2.49,2.49,0,0,1,68.23,43.53Zm-5.71,3.74v8a1,1,0,1,0,2.07,0V48.11h.48V67.87a1.41,1.41,0,0,0,1.07,1.39,1.39,1.39,0,0,0,1.73-1.36V56.27h.61v11.6a1.41,1.41,0,0,0,1.07,1.39,1.39,1.39,0,0,0,1.73-1.36V48.11h.61v7.12a1.06,1.06,0,0,0,.89,1.06,1,1,0,0,0,1.18-1v-8a3.45,3.45,0,0,0-.83-2,3.13,3.13,0,0,0-2.38-1.06h-5a3.13,3.13,0,0,0-2.38,1.06A3.38,3.38,0,0,0,62.52,47.27Z"/><path class="cls-1" d="M87.42,43.53A2.5,2.5,0,1,1,89.91,41,2.49,2.49,0,0,1,87.42,43.53Zm-5.71,3.74v8a1,1,0,1,0,2.07,0V48.11h.48V67.87a1.41,1.41,0,0,0,1.07,1.39,1.39,1.39,0,0,0,1.73-1.36V56.27h.61v11.6a1.41,1.41,0,0,0,1.07,1.39,1.39,1.39,0,0,0,1.73-1.36V48.11h.61v7.12A1.06,1.06,0,0,0,92,56.29a1,1,0,0,0,1.18-1v-8a3.38,3.38,0,0,0-.83-2,3.13,3.13,0,0,0-2.38-1.06h-5a3.13,3.13,0,0,0-2.38,1.06A3.38,3.38,0,0,0,81.71,47.27Z"/><path class="cls-1" d="M106.61,43.53A2.5,2.5,0,1,1,109.1,41,2.49,2.49,0,0,1,106.61,43.53Zm-5.71,3.74v8a1,1,0,1,0,2.07,0V48.11h.48V67.87a1.41,1.41,0,0,0,1.07,1.39,1.39,1.39,0,0,0,1.73-1.36V56.27h.61v11.6a1.41,1.41,0,0,0,1.07,1.39,1.39,1.39,0,0,0,1.73-1.36V48.11h.61v7.12a1.06,1.06,0,0,0,.89,1.06,1,1,0,0,0,1.18-1v-8a3.38,3.38,0,0,0-.83-2,3.13,3.13,0,0,0-2.38-1.06h-5a3.13,3.13,0,0,0-2.38,1.06A3.38,3.38,0,0,0,100.9,47.27Z"/><path class="cls-1" d="M125.8,43.53A2.5,2.5,0,1,1,128.29,41,2.49,2.49,0,0,1,125.8,43.53Zm-5.71,3.74v8a1,1,0,1,0,2.07,0V48.11h.48V67.87a1.41,1.41,0,0,0,1.07,1.39,1.39,1.39,0,0,0,1.73-1.36V56.27h.61v11.6a1.41,1.41,0,0,0,1.07,1.39,1.39,1.39,0,0,0,1.73-1.36V48.11h.61v7.12a1.06,1.06,0,0,0,.89,1.06,1,1,0,0,0,1.18-1v-8a3.38,3.38,0,0,0-.83-2,3.13,3.13,0,0,0-2.38-1.06h-5a3.13,3.13,0,0,0-2.38,1.06A3.38,3.38,0,0,0,120.09,47.27Z"/><path class="cls-1" d="M145,43.53A2.5,2.5,0,1,1,147.48,41,2.49,2.49,0,0,1,145,43.53Zm-5.71,3.74v8a1,1,0,1,0,2.07,0V48.11h.48V67.87a1.41,1.41,0,0,0,1.07,1.39,1.39,1.39,0,0,0,1.73-1.36V56.27h.61v11.6a1.41,1.41,0,0,0,1.07,1.39A1.39,1.39,0,0,0,148,67.9V48.11h.61v7.12a1.06,1.06,0,0,0,.89,1.06,1,1,0,0,0,1.18-1v-8a3.38,3.38,0,0,0-.83-2,3.13,3.13,0,0,0-2.38-1.06h-5a3.13,3.13,0,0,0-2.38,1.06A3.38,3.38,0,0,0,139.28,47.27Z"/><path class="cls-1" d="M164.18,43.53A2.5,2.5,0,1,1,166.67,41,2.49,2.49,0,0,1,164.18,43.53Zm-5.71,3.74v8a1,1,0,1,0,2.07,0V48.11H161V67.87a1.41,1.41,0,0,0,1.07,1.39,1.39,1.39,0,0,0,1.73-1.36V56.27h.61v11.6a1.41,1.41,0,0,0,1.07,1.39,1.39,1.39,0,0,0,1.73-1.36V48.11h.61v7.12a1.06,1.06,0,0,0,.89,1.06,1,1,0,0,0,1.18-1v-8a3.38,3.38,0,0,0-.83-2,3.13,3.13,0,0,0-2.38-1.06h-5a3.13,3.13,0,0,0-2.38,1.06A3.38,3.38,0,0,0,158.47,47.27Z"/><path class="cls-1" d="M183.37,43.53A2.5,2.5,0,1,1,185.86,41,2.49,2.49,0,0,1,183.37,43.53Zm-5.71,3.74v8a1,1,0,1,0,2.07,0V48.11h.48V67.87a1.41,1.41,0,0,0,1.07,1.39A1.39,1.39,0,0,0,183,67.9V56.27h.61v11.6a1.41,1.41,0,0,0,1.07,1.39,1.39,1.39,0,0,0,1.73-1.36V48.11H187v7.12a1.06,1.06,0,0,0,.89,1.06,1,1,0,0,0,1.18-1v-8a3.38,3.38,0,0,0-.83-2,3.13,3.13,0,0,0-2.38-1.06h-5a3.13,3.13,0,0,0-2.38,1.06A3.38,3.38,0,0,0,177.66,47.27Z"/><path class="cls-1" d="M202.56,43.53A2.5,2.5,0,1,1,205.05,41,2.49,2.49,0,0,1,202.56,43.53Zm-5.71,3.74v8a1,1,0,1,0,2.07,0V48.11h.48V67.87a1.41,1.41,0,0,0,1.07,1.39,1.39,1.39,0,0,0,1.73-1.36V56.27h.61v11.6a1.42,1.42,0,0,0,1.07,1.39,1.39,1.39,0,0,0,1.73-1.36V48.11h.61v7.12a1.06,1.06,0,0,0,.89,1.06,1,1,0,0,0,1.18-1v-8a3.38,3.38,0,0,0-.83-2,3.13,3.13,0,0,0-2.38-1.06h-5a3.13,3.13,0,0,0-2.38,1.06A3.38,3.38,0,0,0,196.85,47.27Z"/><path class="cls-1" d="M221.75,43.53A2.5,2.5,0,1,1,224.24,41,2.49,2.49,0,0,1,221.75,43.53ZM216,47.27v8a1,1,0,1,0,2.07,0V48.11h.48V67.87a1.41,1.41,0,0,0,1.07,1.39,1.39,1.39,0,0,0,1.73-1.36V56.27H222v11.6a1.42,1.42,0,0,0,1.07,1.39,1.4,1.4,0,0,0,1.74-1.36V48.11h.6v7.12a1.06,1.06,0,0,0,.89,1.06,1,1,0,0,0,1.18-1v-8a3.38,3.38,0,0,0-.83-2,3.13,3.13,0,0,0-2.38-1.06h-5a3.13,3.13,0,0,0-2.38,1.06A3.45,3.45,0,0,0,216,47.27Z"/><path class="cls-1" d="M240.94,43.53A2.5,2.5,0,1,1,243.43,41,2.49,2.49,0,0,1,240.94,43.53Zm-5.71,3.74v8a1,1,0,1,0,2.07,0V48.11h.48V67.87a1.41,1.41,0,0,0,1.07,1.39,1.39,1.39,0,0,0,1.73-1.36V56.27h.61v11.6a1.42,1.42,0,0,0,1.07,1.39A1.4,1.4,0,0,0,244,67.9V48.11h.6v7.12a1.06,1.06,0,0,0,.89,1.06,1,1,0,0,0,1.18-1v-8a3.38,3.38,0,0,0-.83-2,3.12,3.12,0,0,0-2.37-1.06h-5a3.13,3.13,0,0,0-2.38,1.06A3.45,3.45,0,0,0,235.23,47.27Z"/><path class="cls-1" d="M260.13,43.53A2.5,2.5,0,1,1,262.62,41,2.49,2.49,0,0,1,260.13,43.53Zm-5.71,3.74v8a1,1,0,1,0,2.07,0V48.11H257V67.87A1.42,1.42,0,0,0,258,69.26a1.4,1.4,0,0,0,1.74-1.36V56.27h.6v11.6a1.42,1.42,0,0,0,1.07,1.39,1.4,1.4,0,0,0,1.74-1.36V48.11h.6v7.12a1.06,1.06,0,0,0,.89,1.06,1,1,0,0,0,1.18-1v-8a3.38,3.38,0,0,0-.83-2,3.12,3.12,0,0,0-2.37-1.06h-5a3.13,3.13,0,0,0-2.38,1.06A3.45,3.45,0,0,0,254.42,47.27Z"/><path class="cls-1" d="M279.32,43.53A2.5,2.5,0,1,1,281.81,41,2.49,2.49,0,0,1,279.32,43.53Zm-5.71,3.74v8a1,1,0,1,0,2.07,0V48.11h.48V67.87a1.42,1.42,0,0,0,1.07,1.39A1.4,1.4,0,0,0,279,67.9V56.27h.6v11.6a1.42,1.42,0,0,0,1.07,1.39,1.4,1.4,0,0,0,1.74-1.36V48.11h.6v7.12a1.06,1.06,0,0,0,.89,1.06,1,1,0,0,0,1.18-1v-8a3.38,3.38,0,0,0-.83-2,3.12,3.12,0,0,0-2.37-1.06h-5a3.13,3.13,0,0,0-2.38,1.06A3.45,3.45,0,0,0,273.61,47.27Z"/><path class="cls-1" d="M10.66,79.65a2.49,2.49,0,1,1,2.49-2.49A2.49,2.49,0,0,1,10.66,79.65ZM5,83.4v7.95a1.07,1.07,0,0,0,.88,1.07,1.05,1.05,0,0,0,1.19-1V84.23H7.5V104a1.4,1.4,0,1,0,2.8,0V92.39h.61V104a1.4,1.4,0,1,0,2.8,0V84.23h.61v7.12a1.08,1.08,0,0,0,.89,1.07,1,1,0,0,0,1.18-1v-8a3.45,3.45,0,0,0-.83-2,3.15,3.15,0,0,0-2.38-1h-5a3.14,3.14,0,0,0-2.37,1A3.38,3.38,0,0,0,5,83.4Z"/><path class="cls-1" d="M29.85,79.65a2.49,2.49,0,1,1,2.49-2.49A2.49,2.49,0,0,1,29.85,79.65ZM24.14,83.4v7.95A1.07,1.07,0,0,0,25,92.42a1.05,1.05,0,0,0,1.19-1V84.23h.48V104a1.4,1.4,0,1,0,2.8,0V92.39h.61V104a1.4,1.4,0,1,0,2.8,0V84.23h.61v7.12a1.08,1.08,0,0,0,.89,1.07,1,1,0,0,0,1.18-1v-8a3.45,3.45,0,0,0-.83-2,3.15,3.15,0,0,0-2.38-1h-5a3.14,3.14,0,0,0-2.37,1A3.38,3.38,0,0,0,24.14,83.4Z"/><path class="cls-1" d="M49,79.65a2.49,2.49,0,1,1,2.49-2.49A2.49,2.49,0,0,1,49,79.65ZM43.33,83.4v7.95a1.07,1.07,0,0,0,.88,1.07,1.05,1.05,0,0,0,1.19-1V84.23h.48V104a1.4,1.4,0,1,0,2.8,0V92.39h.61V104a1.4,1.4,0,1,0,2.8,0V84.23h.61v7.12a1.08,1.08,0,0,0,.89,1.07,1,1,0,0,0,1.18-1v-8a3.45,3.45,0,0,0-.83-2,3.15,3.15,0,0,0-2.38-1h-5a3.14,3.14,0,0,0-2.37,1A3.38,3.38,0,0,0,43.33,83.4Z"/><path class="cls-1" d="M68.23,79.65a2.49,2.49,0,1,1,2.49-2.49A2.49,2.49,0,0,1,68.23,79.65ZM62.52,83.4v7.95a1.07,1.07,0,0,0,.88,1.07,1.05,1.05,0,0,0,1.19-1V84.23h.48V104a1.4,1.4,0,1,0,2.8,0V92.39h.61V104a1.4,1.4,0,1,0,2.8,0V84.23h.61v7.12a1.08,1.08,0,0,0,.89,1.07,1,1,0,0,0,1.18-1v-8a3.45,3.45,0,0,0-.83-2,3.15,3.15,0,0,0-2.38-1h-5a3.15,3.15,0,0,0-2.38,1A3.38,3.38,0,0,0,62.52,83.4Z"/><path class="cls-1" d="M87.42,79.65a2.49,2.49,0,1,1,2.49-2.49A2.49,2.49,0,0,1,87.42,79.65ZM81.71,83.4v7.95a1.07,1.07,0,0,0,.88,1.07,1.05,1.05,0,0,0,1.19-1V84.23h.48V104a1.4,1.4,0,1,0,2.8,0V92.39h.61V104a1.4,1.4,0,1,0,2.8,0V84.23h.61v7.12A1.08,1.08,0,0,0,92,92.42a1,1,0,0,0,1.18-1v-8a3.38,3.38,0,0,0-.83-2,3.15,3.15,0,0,0-2.38-1h-5a3.15,3.15,0,0,0-2.38,1A3.38,3.38,0,0,0,81.71,83.4Z"/><path class="cls-1" d="M106.61,79.65a2.49,2.49,0,1,1,2.49-2.49A2.49,2.49,0,0,1,106.61,79.65ZM100.9,83.4v7.95a1.07,1.07,0,0,0,.88,1.07,1.05,1.05,0,0,0,1.19-1V84.23h.48V104a1.4,1.4,0,1,0,2.8,0V92.39h.61V104a1.4,1.4,0,1,0,2.8,0V84.23h.61v7.12a1.08,1.08,0,0,0,.89,1.07,1,1,0,0,0,1.18-1v-8a3.38,3.38,0,0,0-.83-2,3.15,3.15,0,0,0-2.38-1h-5a3.15,3.15,0,0,0-2.38,1A3.38,3.38,0,0,0,100.9,83.4Z"/><path class="cls-1" d="M125.8,79.65a2.49,2.49,0,1,1,2.49-2.49A2.49,2.49,0,0,1,125.8,79.65Zm-5.71,3.75v7.95a1.07,1.07,0,0,0,.88,1.07,1.05,1.05,0,0,0,1.19-1V84.23h.48V104a1.4,1.4,0,1,0,2.8,0V92.39h.61V104a1.4,1.4,0,1,0,2.8,0V84.23h.61v7.12a1.08,1.08,0,0,0,.89,1.07,1,1,0,0,0,1.18-1v-8a3.38,3.38,0,0,0-.83-2,3.15,3.15,0,0,0-2.38-1h-5a3.15,3.15,0,0,0-2.38,1A3.38,3.38,0,0,0,120.09,83.4Z"/><path class="cls-1" d="M145,79.65a2.49,2.49,0,1,1,2.49-2.49A2.49,2.49,0,0,1,145,79.65Zm-5.71,3.75v7.95a1.07,1.07,0,0,0,.88,1.07,1.05,1.05,0,0,0,1.19-1V84.23h.48V104a1.4,1.4,0,1,0,2.8,0V92.39h.61V104a1.4,1.4,0,1,0,2.8,0V84.23h.61v7.12a1.08,1.08,0,0,0,.89,1.07,1,1,0,0,0,1.18-1v-8a3.38,3.38,0,0,0-.83-2,3.15,3.15,0,0,0-2.38-1h-5a3.15,3.15,0,0,0-2.38,1A3.38,3.38,0,0,0,139.28,83.4Z"/><path class="cls-1" d="M164.18,79.65a2.49,2.49,0,1,1,2.49-2.49A2.49,2.49,0,0,1,164.18,79.65Zm-5.71,3.75v7.95a1.07,1.07,0,0,0,.88,1.07,1.05,1.05,0,0,0,1.19-1V84.23H161V104a1.4,1.4,0,1,0,2.8,0V92.39h.61V104a1.4,1.4,0,1,0,2.8,0V84.23h.61v7.12a1.08,1.08,0,0,0,.89,1.07,1,1,0,0,0,1.18-1v-8a3.38,3.38,0,0,0-.83-2,3.15,3.15,0,0,0-2.38-1h-5a3.15,3.15,0,0,0-2.38,1A3.38,3.38,0,0,0,158.47,83.4Z"/><path class="cls-1" d="M183.37,79.65a2.49,2.49,0,1,1,2.49-2.49A2.49,2.49,0,0,1,183.37,79.65Zm-5.71,3.75v7.95a1.07,1.07,0,0,0,.88,1.07,1.05,1.05,0,0,0,1.19-1V84.23h.48V104a1.4,1.4,0,1,0,2.8,0V92.39h.61V104a1.4,1.4,0,1,0,2.8,0V84.23H187v7.12a1.08,1.08,0,0,0,.89,1.07,1,1,0,0,0,1.18-1v-8a3.38,3.38,0,0,0-.83-2,3.15,3.15,0,0,0-2.38-1h-5a3.15,3.15,0,0,0-2.38,1A3.38,3.38,0,0,0,177.66,83.4Z"/><path class="cls-1" d="M202.56,79.65a2.49,2.49,0,1,1,2.49-2.49A2.49,2.49,0,0,1,202.56,79.65Zm-5.71,3.75v7.95a1.07,1.07,0,0,0,.88,1.07,1.05,1.05,0,0,0,1.19-1V84.23h.48V104a1.4,1.4,0,1,0,2.8,0V92.39h.61V104a1.41,1.41,0,0,0,1.07,1.38,1.39,1.39,0,0,0,1.73-1.35V84.23h.61v7.12a1.08,1.08,0,0,0,.89,1.07,1,1,0,0,0,1.18-1v-8a3.38,3.38,0,0,0-.83-2,3.15,3.15,0,0,0-2.38-1h-5a3.15,3.15,0,0,0-2.38,1A3.38,3.38,0,0,0,196.85,83.4Z"/><path class="cls-1" d="M221.75,79.65a2.49,2.49,0,1,1,2.49-2.49A2.49,2.49,0,0,1,221.75,79.65ZM216,83.4v7.95a1.07,1.07,0,0,0,.88,1.07,1.05,1.05,0,0,0,1.19-1V84.23h.48V104a1.4,1.4,0,1,0,2.8,0V92.39H222V104a1.41,1.41,0,1,0,2.81,0V84.23h.6v7.12a1.08,1.08,0,0,0,.89,1.07,1,1,0,0,0,1.18-1v-8a3.38,3.38,0,0,0-.83-2,3.15,3.15,0,0,0-2.38-1h-5a3.15,3.15,0,0,0-2.38,1A3.45,3.45,0,0,0,216,83.4Z"/><path class="cls-1" d="M240.94,79.65a2.49,2.49,0,1,1,2.49-2.49A2.49,2.49,0,0,1,240.94,79.65Zm-5.71,3.75v7.95a1.07,1.07,0,0,0,.88,1.07,1.05,1.05,0,0,0,1.19-1V84.23h.48V104a1.4,1.4,0,1,0,2.8,0V92.39h.61V104a1.41,1.41,0,1,0,2.81,0V84.23h.6v7.12a1.08,1.08,0,0,0,.89,1.07,1,1,0,0,0,1.18-1v-8a3.38,3.38,0,0,0-.83-2,3.14,3.14,0,0,0-2.37-1h-5a3.15,3.15,0,0,0-2.38,1A3.45,3.45,0,0,0,235.23,83.4Z"/><path class="cls-1" d="M260.13,79.65a2.49,2.49,0,1,1,2.49-2.49A2.49,2.49,0,0,1,260.13,79.65Zm-5.71,3.75v7.95a1.07,1.07,0,0,0,.88,1.07,1.05,1.05,0,0,0,1.19-1V84.23H257V104a1.41,1.41,0,1,0,2.81,0V92.39h.6V104a1.41,1.41,0,1,0,2.81,0V84.23h.6v7.12a1.08,1.08,0,0,0,.89,1.07,1,1,0,0,0,1.18-1v-8a3.38,3.38,0,0,0-.83-2,3.14,3.14,0,0,0-2.37-1h-5a3.15,3.15,0,0,0-2.38,1A3.45,3.45,0,0,0,254.42,83.4Z"/><path class="cls-1" d="M279.32,79.65a2.49,2.49,0,1,1,2.49-2.49A2.49,2.49,0,0,1,279.32,79.65Zm-5.71,3.75v7.95a1.07,1.07,0,0,0,.88,1.07,1.05,1.05,0,0,0,1.19-1V84.23h.48V104a1.41,1.41,0,1,0,2.81,0V92.39h.6V104a1.41,1.41,0,1,0,2.81,0V84.23h.6v7.12a1.08,1.08,0,0,0,.89,1.07,1,1,0,0,0,1.18-1v-8a3.38,3.38,0,0,0-.83-2,3.14,3.14,0,0,0-2.37-1h-5a3.15,3.15,0,0,0-2.38,1A3.45,3.45,0,0,0,273.61,83.4Z"/><path class="cls-1" d="M10.66,115.77a2.49,2.49,0,1,1,2.49-2.49A2.48,2.48,0,0,1,10.66,115.77ZM5,119.52v8a1,1,0,1,0,2.07,0v-7.13H7.5v19.76a1.42,1.42,0,0,0,1.07,1.39,1.4,1.4,0,0,0,1.73-1.36V128.52h.61v11.6A1.42,1.42,0,0,0,12,141.51a1.4,1.4,0,0,0,1.73-1.36V120.36h.61v7.12a1.06,1.06,0,0,0,.89,1.06,1,1,0,0,0,1.18-1v-8a3.4,3.4,0,0,0-.83-2,3.13,3.13,0,0,0-2.38-1.06h-5a3.12,3.12,0,0,0-2.37,1.06A3.34,3.34,0,0,0,5,119.52Z"/><path class="cls-1" d="M29.85,115.77a2.49,2.49,0,1,1,2.49-2.49A2.48,2.48,0,0,1,29.85,115.77Zm-5.71,3.75v8a1,1,0,1,0,2.07,0v-7.13h.48v19.76a1.42,1.42,0,0,0,1.07,1.39,1.4,1.4,0,0,0,1.73-1.36V128.52h.61v11.6a1.42,1.42,0,0,0,1.07,1.39,1.4,1.4,0,0,0,1.73-1.36V120.36h.61v7.12a1.06,1.06,0,0,0,.89,1.06,1,1,0,0,0,1.18-1v-8a3.4,3.4,0,0,0-.83-2,3.13,3.13,0,0,0-2.38-1.06h-5A3.12,3.12,0,0,0,25,117.52,3.34,3.34,0,0,0,24.14,119.52Z"/><path class="cls-1" d="M49,115.77a2.49,2.49,0,1,1,2.49-2.49A2.48,2.48,0,0,1,49,115.77Zm-5.71,3.75v8a1,1,0,1,0,2.07,0v-7.13h.48v19.76A1.42,1.42,0,0,0,47,141.51a1.4,1.4,0,0,0,1.73-1.36V128.52h.61v11.6a1.42,1.42,0,0,0,1.07,1.39,1.4,1.4,0,0,0,1.73-1.36V120.36h.61v7.12a1.06,1.06,0,0,0,.89,1.06,1,1,0,0,0,1.18-1v-8a3.4,3.4,0,0,0-.83-2,3.13,3.13,0,0,0-2.38-1.06h-5a3.12,3.12,0,0,0-2.37,1.06A3.34,3.34,0,0,0,43.33,119.52Z"/><path class="cls-1" d="M68.23,115.77a2.49,2.49,0,1,1,2.49-2.49A2.48,2.48,0,0,1,68.23,115.77Zm-5.71,3.75v8a1,1,0,1,0,2.07,0v-7.13h.48v19.76a1.42,1.42,0,0,0,1.07,1.39,1.4,1.4,0,0,0,1.73-1.36V128.52h.61v11.6a1.42,1.42,0,0,0,1.07,1.39,1.4,1.4,0,0,0,1.73-1.36V120.36h.61v7.12a1.06,1.06,0,0,0,.89,1.06,1,1,0,0,0,1.18-1v-8a3.4,3.4,0,0,0-.83-2,3.13,3.13,0,0,0-2.38-1.06h-5a3.13,3.13,0,0,0-2.38,1.06A3.34,3.34,0,0,0,62.52,119.52Z"/><path class="cls-1" d="M87.42,115.77a2.49,2.49,0,1,1,2.49-2.49A2.48,2.48,0,0,1,87.42,115.77Zm-5.71,3.75v8a1,1,0,1,0,2.07,0v-7.13h.48v19.76a1.42,1.42,0,0,0,1.07,1.39,1.4,1.4,0,0,0,1.73-1.36V128.52h.61v11.6a1.42,1.42,0,0,0,1.07,1.39,1.4,1.4,0,0,0,1.73-1.36V120.36h.61v7.12a1.06,1.06,0,0,0,.89,1.06,1,1,0,0,0,1.18-1v-8a3.34,3.34,0,0,0-.83-2,3.13,3.13,0,0,0-2.38-1.06h-5a3.13,3.13,0,0,0-2.38,1.06A3.34,3.34,0,0,0,81.71,119.52Z"/><path class="cls-1" d="M106.61,115.77a2.49,2.49,0,1,1,2.49-2.49A2.48,2.48,0,0,1,106.61,115.77Zm-5.71,3.75v8a1,1,0,1,0,2.07,0v-7.13h.48v19.76a1.42,1.42,0,0,0,1.07,1.39,1.4,1.4,0,0,0,1.73-1.36V128.52h.61v11.6a1.42,1.42,0,0,0,1.07,1.39,1.4,1.4,0,0,0,1.73-1.36V120.36h.61v7.12a1.06,1.06,0,0,0,.89,1.06,1,1,0,0,0,1.18-1v-8a3.34,3.34,0,0,0-.83-2,3.13,3.13,0,0,0-2.38-1.06h-5a3.13,3.13,0,0,0-2.38,1.06A3.34,3.34,0,0,0,100.9,119.52Z"/><path class="cls-1" d="M125.8,115.77a2.49,2.49,0,1,1,2.49-2.49A2.48,2.48,0,0,1,125.8,115.77Zm-5.71,3.75v8a1,1,0,1,0,2.07,0v-7.13h.48v19.76a1.42,1.42,0,0,0,1.07,1.39,1.4,1.4,0,0,0,1.73-1.36V128.52h.61v11.6a1.42,1.42,0,0,0,1.07,1.39,1.4,1.4,0,0,0,1.73-1.36V120.36h.61v7.12a1.06,1.06,0,0,0,.89,1.06,1,1,0,0,0,1.18-1v-8a3.34,3.34,0,0,0-.83-2,3.13,3.13,0,0,0-2.38-1.06h-5a3.13,3.13,0,0,0-2.38,1.06A3.34,3.34,0,0,0,120.09,119.52Z"/><path class="cls-1" d="M145,115.77a2.49,2.49,0,1,1,2.49-2.49A2.48,2.48,0,0,1,145,115.77Zm-5.71,3.75v8a1,1,0,1,0,2.07,0v-7.13h.48v19.76a1.42,1.42,0,0,0,1.07,1.39,1.4,1.4,0,0,0,1.73-1.36V128.52h.61v11.6a1.42,1.42,0,0,0,1.07,1.39,1.4,1.4,0,0,0,1.73-1.36V120.36h.61v7.12a1.06,1.06,0,0,0,.89,1.06,1,1,0,0,0,1.18-1v-8a3.34,3.34,0,0,0-.83-2,3.13,3.13,0,0,0-2.38-1.06h-5a3.13,3.13,0,0,0-2.38,1.06A3.34,3.34,0,0,0,139.28,119.52Z"/><path class="cls-1" d="M164.18,115.77a2.49,2.49,0,1,1,2.49-2.49A2.48,2.48,0,0,1,164.18,115.77Zm-5.71,3.75v8a1,1,0,1,0,2.07,0v-7.13H161v19.76a1.42,1.42,0,0,0,1.07,1.39,1.4,1.4,0,0,0,1.73-1.36V128.52h.61v11.6a1.42,1.42,0,0,0,1.07,1.39,1.4,1.4,0,0,0,1.73-1.36V120.36h.61v7.12a1.06,1.06,0,0,0,.89,1.06,1,1,0,0,0,1.18-1v-8a3.34,3.34,0,0,0-.83-2,3.13,3.13,0,0,0-2.38-1.06h-5a3.13,3.13,0,0,0-2.38,1.06A3.34,3.34,0,0,0,158.47,119.52Z"/><path class="cls-1" d="M183.37,115.77a2.49,2.49,0,1,1,2.49-2.49A2.48,2.48,0,0,1,183.37,115.77Zm-5.71,3.75v8a1,1,0,1,0,2.07,0v-7.13h.48v19.76a1.42,1.42,0,0,0,1.07,1.39,1.4,1.4,0,0,0,1.73-1.36V128.52h.61v11.6a1.42,1.42,0,0,0,1.07,1.39,1.4,1.4,0,0,0,1.73-1.36V120.36H187v7.12a1.06,1.06,0,0,0,.89,1.06,1,1,0,0,0,1.18-1v-8a3.34,3.34,0,0,0-.83-2,3.13,3.13,0,0,0-2.38-1.06h-5a3.13,3.13,0,0,0-2.38,1.06A3.34,3.34,0,0,0,177.66,119.52Z"/><path class="cls-1" d="M202.56,115.77a2.49,2.49,0,1,1,2.49-2.49A2.48,2.48,0,0,1,202.56,115.77Zm-5.71,3.75v8a1,1,0,1,0,2.07,0v-7.13h.48v19.76a1.42,1.42,0,0,0,1.07,1.39,1.4,1.4,0,0,0,1.73-1.36V128.52h.61v11.6a1.43,1.43,0,0,0,1.07,1.39,1.4,1.4,0,0,0,1.73-1.36V120.36h.61v7.12a1.06,1.06,0,0,0,.89,1.06,1,1,0,0,0,1.18-1v-8a3.34,3.34,0,0,0-.83-2,3.13,3.13,0,0,0-2.38-1.06h-5a3.13,3.13,0,0,0-2.38,1.06A3.34,3.34,0,0,0,196.85,119.52Z"/><path class="cls-1" d="M221.75,115.77a2.49,2.49,0,1,1,2.49-2.49A2.48,2.48,0,0,1,221.75,115.77ZM216,119.52v8a1,1,0,1,0,2.07,0v-7.13h.48v19.76a1.42,1.42,0,0,0,1.07,1.39,1.4,1.4,0,0,0,1.73-1.36V128.52H222v11.6a1.43,1.43,0,0,0,1.07,1.39,1.41,1.41,0,0,0,1.74-1.36V120.36h.6v7.12a1.06,1.06,0,0,0,.89,1.06,1,1,0,0,0,1.18-1v-8a3.34,3.34,0,0,0-.83-2,3.13,3.13,0,0,0-2.38-1.06h-5a3.13,3.13,0,0,0-2.38,1.06A3.4,3.4,0,0,0,216,119.52Z"/><path class="cls-1" d="M240.94,115.77a2.49,2.49,0,1,1,2.49-2.49A2.48,2.48,0,0,1,240.94,115.77Zm-5.71,3.75v8a1,1,0,1,0,2.07,0v-7.13h.48v19.76a1.42,1.42,0,0,0,1.07,1.39,1.4,1.4,0,0,0,1.73-1.36V128.52h.61v11.6a1.43,1.43,0,0,0,1.07,1.39,1.41,1.41,0,0,0,1.74-1.36V120.36h.6v7.12a1.06,1.06,0,0,0,.89,1.06,1,1,0,0,0,1.18-1v-8a3.34,3.34,0,0,0-.83-2,3.12,3.12,0,0,0-2.37-1.06h-5a3.13,3.13,0,0,0-2.38,1.06A3.4,3.4,0,0,0,235.23,119.52Z"/><path class="cls-1" d="M260.13,115.77a2.49,2.49,0,1,1,2.49-2.49A2.48,2.48,0,0,1,260.13,115.77Zm-5.71,3.75v8a1,1,0,1,0,2.07,0v-7.13H257v19.76a1.43,1.43,0,0,0,1.07,1.39,1.41,1.41,0,0,0,1.74-1.36V128.52h.6v11.6a1.43,1.43,0,0,0,1.07,1.39,1.41,1.41,0,0,0,1.74-1.36V120.36h.6v7.12a1.06,1.06,0,0,0,.89,1.06,1,1,0,0,0,1.18-1v-8a3.34,3.34,0,0,0-.83-2,3.12,3.12,0,0,0-2.37-1.06h-5a3.13,3.13,0,0,0-2.38,1.06A3.4,3.4,0,0,0,254.42,119.52Z"/><path class="cls-1" d="M279.32,115.77a2.49,2.49,0,1,1,2.49-2.49A2.48,2.48,0,0,1,279.32,115.77Zm-5.71,3.75v8a1,1,0,1,0,2.07,0v-7.13h.48v19.76a1.43,1.43,0,0,0,1.07,1.39,1.41,1.41,0,0,0,1.74-1.36V128.52h.6v11.6a1.43,1.43,0,0,0,1.07,1.39,1.41,1.41,0,0,0,1.74-1.36V120.36h.6v7.12a1.06,1.06,0,0,0,.89,1.06,1,1,0,0,0,1.18-1v-8a3.34,3.34,0,0,0-.83-2,3.12,3.12,0,0,0-2.37-1.06h-5a3.13,3.13,0,0,0-2.38,1.06A3.4,3.4,0,0,0,273.61,119.52Z"/><path class="cls-1" d="M10.66,151.89a2.49,2.49,0,1,1,2.49-2.49A2.48,2.48,0,0,1,10.66,151.89ZM5,155.64v8a1,1,0,1,0,2.07,0v-7.14H7.5v19.76a1.42,1.42,0,0,0,1.07,1.39,1.4,1.4,0,0,0,1.73-1.36V164.64h.61v11.6A1.42,1.42,0,0,0,12,177.63a1.4,1.4,0,0,0,1.73-1.36V156.48h.61v7.12a1.06,1.06,0,0,0,.89,1.06,1,1,0,0,0,1.18-1v-8a3.4,3.4,0,0,0-.83-2,3.13,3.13,0,0,0-2.38-1.06h-5a3.12,3.12,0,0,0-2.37,1.06A3.34,3.34,0,0,0,5,155.64Z"/><path class="cls-1" d="M29.85,151.89a2.49,2.49,0,1,1,2.49-2.49A2.48,2.48,0,0,1,29.85,151.89Zm-5.71,3.75v8a1,1,0,1,0,2.07,0v-7.14h.48v19.76a1.42,1.42,0,0,0,1.07,1.39,1.4,1.4,0,0,0,1.73-1.36V164.64h.61v11.6a1.42,1.42,0,0,0,1.07,1.39,1.4,1.4,0,0,0,1.73-1.36V156.48h.61v7.12a1.06,1.06,0,0,0,.89,1.06,1,1,0,0,0,1.18-1v-8a3.4,3.4,0,0,0-.83-2,3.13,3.13,0,0,0-2.38-1.06h-5A3.12,3.12,0,0,0,25,153.64,3.34,3.34,0,0,0,24.14,155.64Z"/><path class="cls-1" d="M49,151.89a2.49,2.49,0,1,1,2.49-2.49A2.48,2.48,0,0,1,49,151.89Zm-5.71,3.75v8a1,1,0,1,0,2.07,0v-7.14h.48v19.76A1.42,1.42,0,0,0,47,177.63a1.4,1.4,0,0,0,1.73-1.36V164.64h.61v11.6a1.42,1.42,0,0,0,1.07,1.39,1.4,1.4,0,0,0,1.73-1.36V156.48h.61v7.12a1.06,1.06,0,0,0,.89,1.06,1,1,0,0,0,1.18-1v-8a3.4,3.4,0,0,0-.83-2,3.13,3.13,0,0,0-2.38-1.06h-5a3.12,3.12,0,0,0-2.37,1.06A3.34,3.34,0,0,0,43.33,155.64Z"/><path class="cls-1" d="M68.23,151.89a2.49,2.49,0,1,1,2.49-2.49A2.48,2.48,0,0,1,68.23,151.89Zm-5.71,3.75v8a1,1,0,1,0,2.07,0v-7.14h.48v19.76a1.42,1.42,0,0,0,1.07,1.39,1.4,1.4,0,0,0,1.73-1.36V164.64h.61v11.6a1.42,1.42,0,0,0,1.07,1.39,1.4,1.4,0,0,0,1.73-1.36V156.48h.61v7.12a1.06,1.06,0,0,0,.89,1.06,1,1,0,0,0,1.18-1v-8a3.4,3.4,0,0,0-.83-2,3.13,3.13,0,0,0-2.38-1.06h-5a3.13,3.13,0,0,0-2.38,1.06A3.34,3.34,0,0,0,62.52,155.64Z"/><path class="cls-1" d="M87.42,151.89a2.49,2.49,0,1,1,2.49-2.49A2.48,2.48,0,0,1,87.42,151.89Zm-5.71,3.75v8a1,1,0,1,0,2.07,0v-7.14h.48v19.76a1.42,1.42,0,0,0,1.07,1.39,1.4,1.4,0,0,0,1.73-1.36V164.64h.61v11.6a1.42,1.42,0,0,0,1.07,1.39,1.4,1.4,0,0,0,1.73-1.36V156.48h.61v7.12a1.06,1.06,0,0,0,.89,1.06,1,1,0,0,0,1.18-1v-8a3.34,3.34,0,0,0-.83-2,3.13,3.13,0,0,0-2.38-1.06h-5a3.13,3.13,0,0,0-2.38,1.06A3.34,3.34,0,0,0,81.71,155.64Z"/><path class="cls-1" d="M106.61,151.89a2.49,2.49,0,1,1,2.49-2.49A2.48,2.48,0,0,1,106.61,151.89Zm-5.71,3.75v8a1,1,0,1,0,2.07,0v-7.14h.48v19.76a1.42,1.42,0,0,0,1.07,1.39,1.4,1.4,0,0,0,1.73-1.36V164.64h.61v11.6a1.42,1.42,0,0,0,1.07,1.39,1.4,1.4,0,0,0,1.73-1.36V156.48h.61v7.12a1.06,1.06,0,0,0,.89,1.06,1,1,0,0,0,1.18-1v-8a3.34,3.34,0,0,0-.83-2,3.13,3.13,0,0,0-2.38-1.06h-5a3.13,3.13,0,0,0-2.38,1.06A3.34,3.34,0,0,0,100.9,155.64Z"/><path class="cls-2" d="M94.8,215.19l4.63-4.62.4.4-4.62,4.63,4.62,4.62-.4.41L94.8,216l-4.63,4.64-.41-.41,4.64-4.63L89.78,211l.4-.4Zm-2.94.41a1,1,0,1,1-1-1A1.06,1.06,0,0,1,91.86,215.6Zm2.94-2.95a1,1,0,1,1,1-1.05A1.06,1.06,0,0,1,94.8,212.65Zm0,5.89a1,1,0,0,1,0,2.1,1,1,0,0,1,0-2.1Zm3-2.94a1.05,1.05,0,0,1,2.1,0,1.05,1.05,0,0,1-2.1,0Z"/><path class="cls-2" d="M102.42,220c3-2.69,4.61-4.69,4.61-6.39a1.69,1.69,0,0,0-1.76-1.89,2.81,2.81,0,0,0-2,1.15l-.91-.89a4.05,4.05,0,0,1,3.14-1.55,2.92,2.92,0,0,1,3.11,3.1c0,2-1.58,4.05-3.77,6.13.53,0,1.18-.09,1.68-.09h2.58v1.37h-6.65Z"/><path class="cls-2" d="M110.44,215.72c0-3.57,1.3-5.31,3.33-5.31s3.34,1.75,3.34,5.31-1.32,5.38-3.34,5.38S110.44,219.31,110.44,215.72Zm5.13,0c0-2.95-.75-4-1.8-4s-1.79,1.08-1.79,4,.74,4.11,1.79,4.11S115.57,218.71,115.57,215.72Z"/><path class="cls-2" d="M118.38,220c3-2.69,4.6-4.69,4.6-6.39a1.68,1.68,0,0,0-1.75-1.89,2.81,2.81,0,0,0-2,1.15l-.91-.89a4,4,0,0,1,3.14-1.55,2.92,2.92,0,0,1,3.11,3.1c0,2-1.58,4.05-3.77,6.13.53,0,1.18-.09,1.68-.09H125v1.37h-6.65Z"/><path class="cls-2" d="M126.4,215.72c0-3.57,1.3-5.31,3.33-5.31s3.34,1.75,3.34,5.31-1.32,5.38-3.34,5.38S126.4,219.31,126.4,215.72Zm5.12,0c0-2.95-.74-4-1.79-4s-1.79,1.08-1.79,4,.74,4.11,1.79,4.11S131.52,218.71,131.52,215.72Z"/><path class="cls-2" d="M150.54,218.93h-4.92V222h-1.34v-3.1h-6.37v-1.26h2.25V214h4.12V212h-3.21a12.63,12.63,0,0,1-2,2.66,11.44,11.44,0,0,0-1.13-.84,11.32,11.32,0,0,0,3.05-4.75l1.32.35c-.17.43-.36.9-.55,1.32h8.11V212h-4.23V214h3.91v1.22h-3.91v2.48h4.92Zm-6.26-1.26v-2.48h-2.82v2.48Z"/><path class="cls-2" d="M155.1,219.73l.77-1a3.3,3.3,0,0,0,2.41,1.11,2,2,0,0,0,2-2.2,1.91,1.91,0,0,0-2-2.16,2.71,2.71,0,0,0-1.65.59l-.79-.52.31-4.89h5.23V212h-3.83l-.23,2.65a2.82,2.82,0,0,1,1.41-.37,3,3,0,0,1,3.14,3.28,3.4,3.4,0,0,1-3.48,3.57A4.58,4.58,0,0,1,155.1,219.73Z"/><path class="cls-2" d="M177.76,220.26c0,.84-.23,1.25-.79,1.46a9.26,9.26,0,0,1-3,.26,5.14,5.14,0,0,0-.56-1.37c1.1.06,2.22,0,2.55,0s.42-.11.42-.41v-2.45H170a7.69,7.69,0,0,1-2.39,4.26,4.75,4.75,0,0,0-1-.95c2.19-1.88,2.4-4.63,2.4-6.82v-4.4h8.73Zm-1.38-3.74v-2.07h-6a17,17,0,0,1-.13,2.07Zm-6-5.39v2.07h6v-2.07Z"/><path class="cls-2" d="M186,218.47c-1.75.53-3.61,1.06-5,1.47l-.33-1.25c.59-.12,1.32-.32,2.1-.53V215h-1.68v-1.2h1.68v-2.73h-1.82v-1.21h4.81v1.21H184v2.73h1.58V215H184v2.79l1.79-.51Zm6.37,2.34c.3,0,.35-.21.4-1.63a3.26,3.26,0,0,0,1.09.49c-.11,1.79-.42,2.26-1.33,2.26h-1.22c-1.12,0-1.39-.37-1.39-1.53v-3h-1.15c-.25,2.24-1,3.79-3.79,4.66a3.63,3.63,0,0,0-.73-1.07c2.51-.65,3-1.84,3.25-3.59h-1.15v-7.71H193v7.71h-1.83v2.94c0,.38.06.42.35.42Zm-4.8-8.83h4.15v-1.16h-4.15Zm0,2.19h4.15V213h-4.15Zm0,2.18h4.15v-1.17h-4.15Z"/><path class="cls-2" d="M207.32,211.21v1.25h-7.53a16.8,16.8,0,0,1-1.67,2.81V222h-1.3v-5.21a13.29,13.29,0,0,1-1.46,1.22,7.87,7.87,0,0,0-.64-1.22,11.45,11.45,0,0,0,3.6-4.33H195.1v-1.25h3.78a14.6,14.6,0,0,0,.68-2.06l1.36.34c-.18.57-.38,1.15-.6,1.72Zm-3.53,9.26h3.52v1.22H199v-1.22h3.53v-3.61h-3v-1.21h3v-2.52h1.31v2.52h3v1.21h-3Z"/></g></svg>