<svg xmlns="http://www.w3.org/2000/svg" xmlns:xlink="http://www.w3.org/1999/xlink" viewBox="0 0 352 220"><defs><style>.cls-1{fill:#e0e0e0;opacity:0;}.cls-2{fill:#e5f3f2;}.cls-3,.cls-4{fill:#fff;}.cls-4,.cls-5{stroke:#00684d;stroke-miterlimit:10;stroke-width:4.64px;}.cls-5{fill:#b2dcd7;}</style><symbol id="_5_2" data-name="5 2" viewBox="0 0 352 220"><rect class="cls-1" width="352" height="220"/><circle class="cls-2" cx="176" cy="108.84" r="60.5"/><path class="cls-3" d="M180.65,108.84c17-15.69,27.93-43.36,27.93-65.16H143.42c0,21.8,10.88,49.47,27.93,65.16-.88,6.25-5.09,14.47-14,20.94v9.31h37.24v-9.31C185.74,123.31,181.53,115.09,180.65,108.84Z"/><path class="cls-4" d="M208.58,43.68c0,21.8-10.88,49.47-27.93,65.16h-9.3c-17-15.69-27.93-43.36-27.93-65.16Z"/><path class="cls-4" d="M157.84,69.93A58,58,0,0,1,155.06,53"/><path class="cls-4" d="M162,80.26c-.56-1.08-1.08-2.19-1.57-3.31"/><path class="cls-4" d="M171.35,108.84c-.88,6.25-5.09,14.47-14,20.94v9.31"/><path class="cls-4" d="M180.65,108.84c.88,6.25,5.09,14.47,14,20.94v9.31"/><path class="cls-4" d="M143.79,50.66H127.13c0,29.54,23.06,24.22,27,34.91,1.06,3,.21,5.69-2.72,7.11-1.87.91-7.19.09-6.44-4.57"/><path class="cls-4" d="M208.21,50.66h16.65c0,29.54-23.05,24.22-27,34.91-1.06,3-.21,5.69,2.72,7.11,1.87.91,7.19.09,6.44-4.57"/><rect class="cls-5" x="148.08" y="139.09" width="55.85" height="37.23"/><line class="cls-4" x1="157.38" y1="129.78" x2="173.67" y2="129.78"/><line class="cls-4" x1="184.22" y1="129.78" x2="194.62" y2="129.78"/><rect class="cls-4" x="162.04" y="150.72" width="27.92" height="13.96"/></symbol></defs><title>system_ico_02</title><g id="コンテンツ"><use width="352" height="220" xlink:href="#_5_2"/></g></svg>