<svg xmlns="http://www.w3.org/2000/svg" xmlns:xlink="http://www.w3.org/1999/xlink" viewBox="0 0 352 220"><defs><style>.cls-1{fill:#e0e0e0;opacity:0;}.cls-2{fill:#e5f3f2;}.cls-3,.cls-6{fill:#fff;}.cls-3,.cls-5{stroke:#00684d;stroke-miterlimit:10;stroke-width:4.87px;}.cls-4{fill:#b2dcd7;}.cls-5{fill:none;}</style><symbol id="_3" data-name="3" viewBox="0 0 352 220"><rect class="cls-1" width="352" height="220"/><circle class="cls-2" cx="174.78" cy="103.92" r="62.03" transform="translate(-22.29 154.03) rotate(-45)"/><path class="cls-3" d="M210.06,99.53a12.17,12.17,0,0,0,12.16-11.92V83.7a12.17,12.17,0,0,0-24.33,0v3.91A12.18,12.18,0,0,0,210.06,99.53Z"/><path class="cls-4" d="M219.79,107.57H200.33c-7.56,0-17,6.9-17,17v17h53.52v-17C236.82,114.47,227.35,107.57,219.79,107.57Z"/><path class="cls-5" d="M236.82,141.63v-17c0-10.13-9.47-17-17-17H200.33c-7.56,0-17,6.9-17,17v17"/><line class="cls-5" x1="224.65" y1="141.63" x2="224.65" y2="124.6"/><line class="cls-5" x1="195.46" y1="124.6" x2="195.46" y2="141.63"/><line class="cls-5" x1="103.02" y1="141.63" x2="248.98" y2="141.63"/><path class="cls-3" d="M144.37,99.53a12.17,12.17,0,0,0,12.17-11.92V83.7a12.17,12.17,0,0,0-24.33,0v3.91A12.17,12.17,0,0,0,144.37,99.53Z"/><path class="cls-4" d="M154.11,107.57H134.64c-7.55,0-17,6.9-17,17v19.46c0,5.43,6.12,12.16,11.55,12.16h29.19c5.43,0,12.77-6.73,12.77-12.16V124.6C171.13,114.47,161.66,107.57,154.11,107.57Z"/><path class="cls-5" d="M158.36,156.22c5.43,0,12.77-6.73,12.77-12.16V124.6c0-10.13-9.47-17-17-17H134.64c-7.55,0-17,6.9-17,17v19.46c0,5.43,6.12,12.16,11.55,12.16"/><rect class="cls-6" x="127.35" y="122.16" width="34.06" height="55.95"/><polyline class="cls-5" points="127.35 178.12 127.35 122.16 161.4 122.16 161.4 178.12"/><line class="cls-5" x1="241.68" y1="144.06" x2="241.68" y2="178.12"/><line class="cls-5" x1="110.32" y1="144.06" x2="110.32" y2="178.12"/></symbol></defs><title>system_ico_04</title><g id="コンテンツ"><use width="352" height="220" xlink:href="#_3"/></g></svg>