<svg xmlns="http://www.w3.org/2000/svg" xmlns:xlink="http://www.w3.org/1999/xlink" viewBox="0 0 352 220"><defs><style>.cls-1{fill:#e0e0e0;opacity:0;}.cls-2{fill:#e5f3f2;}.cls-3{fill:#b2dcd7;}.cls-4,.cls-5{fill:#fff;}.cls-5,.cls-6{stroke:#00684d;stroke-miterlimit:10;stroke-width:4.87px;}.cls-6{fill:none;}</style><symbol id="_2" data-name="2" viewBox="0 0 352 220"><rect class="cls-1" width="352" height="220"/><circle class="cls-2" cx="174.78" cy="95.4" r="57.17" transform="translate(-16.27 151.53) rotate(-45)"/><path class="cls-3" d="M124.91,181.76V138c-5.43,0-12.16-6.74-12.16-12.17V101.49c0-6.44,8.72-14.6,17-14.6h19.46c7.56,0,17,6.9,17,17v21.89c0,5.43-6.73,12.17-12.16,12.17v43.78Z"/><path class="cls-4" d="M197.89,181.76V138c-4.86,0-12.16-6.74-12.16-12.17V101.49c0-6.44,8.72-14.6,17-14.6h19.46c7.56,0,17,6.9,17,17v21.89c0,5.43-7.3,12.17-12.16,12.17v43.78Z"/><path class="cls-5" d="M139.51,78.85a12.17,12.17,0,0,0,12.16-11.92V63a12.16,12.16,0,0,0-24.32,0v3.91A12.17,12.17,0,0,0,139.51,78.85Z"/><path class="cls-6" d="M124.91,138c-5.43,0-12.16-6.74-12.16-12.17V103.92c0-10.13,9.47-17,17-17h19.46c8.31,0,17,10.59,17,17"/><line class="cls-6" x1="124.91" y1="181.76" x2="124.91" y2="103.92"/><path class="cls-6" d="M166.27,118.51v7.3c0,5.43-6.73,12.17-12.16,12.17v43.78"/><line class="cls-6" x1="139.51" y1="137.98" x2="139.51" y2="181.76"/><line class="cls-6" x1="163.84" y1="111.22" x2="139.51" y2="111.22"/><line class="cls-6" x1="173.57" y1="111.22" x2="168.7" y2="111.22"/><path class="cls-5" d="M212.49,78.85a12.17,12.17,0,0,1-12.16-11.92V63a12.16,12.16,0,0,1,24.32,0v3.91A12.17,12.17,0,0,1,212.49,78.85Z"/><path class="cls-6" d="M227.09,138c5.43,0,12.16-6.74,12.16-12.17V103.92c0-10.13-9.47-17-17-17H202.76c-8.31,0-17,10.59-17,17"/><line class="cls-6" x1="227.09" y1="181.76" x2="227.09" y2="103.92"/><path class="cls-6" d="M185.73,118.51v7.3c0,5.43,7.3,12.17,12.16,12.17v43.78"/><line class="cls-6" x1="212.49" y1="137.98" x2="212.49" y2="181.76"/><line class="cls-6" x1="188.16" y1="111.22" x2="212.49" y2="111.22"/><polyline class="cls-6" points="202.76 123.38 214.92 111.22 202.76 99.05"/><polyline class="cls-6" points="149.24 123.38 137.08 111.22 149.24 99.05"/><line class="cls-6" x1="178.43" y1="111.22" x2="183.3" y2="111.22"/></symbol></defs><title>system_ico_01</title><g id="コンテンツ"><use width="352" height="220" xlink:href="#_2"/></g></svg>