<svg xmlns="http://www.w3.org/2000/svg" xmlns:xlink="http://www.w3.org/1999/xlink" viewBox="0 0 352 220"><defs><style>.cls-1{fill:#e0e0e0;opacity:0;}.cls-2{fill:#00684d;}.cls-3{fill:#e5f3f2;}.cls-4{fill:#fff;}.cls-5{fill:#b2dcd7;}</style><symbol id="_1" data-name="1" viewBox="0 0 352 220"><rect class="cls-1" width="352" height="220"/><polygon class="cls-2" points="110.87 113.58 99.82 102.53 110.87 91.48 114.19 94.8 106.46 102.53 114.19 110.26 110.87 113.58"/><circle class="cls-3" cx="173.57" cy="102.53" r="56.34"/><rect class="cls-2" x="103.14" y="100.19" width="30.52" height="4.7"/><rect class="cls-2" x="213.48" y="100.19" width="30.52" height="4.7"/><polygon class="cls-2" points="236.27 113.58 232.95 110.26 240.68 102.53 232.95 94.8 236.27 91.48 247.32 102.53 236.27 113.58"/><polygon class="cls-2" points="143.62 75.9 120.38 52.66 123.7 49.34 146.94 72.58 143.62 75.9"/><polygon class="cls-2" points="124.27 64.97 119.57 64.97 119.57 48.54 136 48.54 136 53.23 124.27 53.23 124.27 64.97"/><polygon class="cls-2" points="203.52 75.9 200.2 72.58 223.44 49.34 226.76 52.66 203.52 75.9"/><polygon class="cls-2" points="227.56 64.97 222.87 64.97 222.87 53.23 211.13 53.23 211.13 48.54 227.56 48.54 227.56 64.97"/><polygon class="cls-2" points="223.44 155.72 202.43 134.71 205.75 131.39 226.76 152.4 223.44 155.72"/><polygon class="cls-2" points="227.56 156.53 211.13 156.53 211.13 151.83 222.87 151.83 222.87 140.1 227.56 140.1 227.56 156.53"/><polygon class="cls-2" points="123.7 155.72 120.38 152.4 141.39 131.39 144.71 134.71 123.7 155.72"/><polygon class="cls-2" points="136 156.53 119.57 156.53 119.57 140.1 124.27 140.1 124.27 151.83 136 151.83 136 156.53"/><path class="cls-4" d="M173.57,71.3a11.75,11.75,0,0,0,11.74-11.5V56a11.74,11.74,0,0,0-23.48,0V59.8A11.74,11.74,0,0,0,173.57,71.3Z"/><path class="cls-2" d="M173.57,73.64A14.15,14.15,0,0,1,159.48,59.8V56a14.09,14.09,0,0,1,28.17,0V59.8A14.15,14.15,0,0,1,173.57,73.64Zm0-26.77A9.4,9.4,0,0,0,164.18,56V59.8a9.39,9.39,0,0,0,18.78,0V56A9.4,9.4,0,0,0,173.57,46.87Z"/><path class="cls-5" d="M183,79.06H164.18c-7.3,0-16.44,6.66-16.44,16.43v21.13c0,5.24,5.91,11.74,11.15,11.74h.59V173h28.17V128.31c5.17-.44,11.74-6.64,11.74-11.69V95.49C199.39,85.72,190.25,79.06,183,79.06Z"/><path class="cls-2" d="M187.07,130.7V126c4.1,0,10-5.53,10-9.39V95.49c0-8.6-8.34-14.09-14.08-14.09H164.18c-5.75,0-14.09,5.49-14.09,14.09v21.13c0,4,5,9.39,8.8,9.39v4.69c-6.43,0-13.49-7.37-13.49-14.08V95.49c0-10.75,9.91-18.78,18.78-18.78H183c8.86,0,18.78,8,18.78,18.78v21.13C201.74,123.07,193.79,130.7,187.07,130.7Z"/><rect class="cls-2" x="185.31" y="95.49" width="4.7" height="77.47"/><rect class="cls-2" x="157.13" y="95.49" width="4.7" height="77.47"/><rect class="cls-2" x="171.22" y="128.36" width="4.7" height="44.61"/></symbol></defs><title>system_ico_03</title><g id="コンテンツ"><use width="352" height="220" xlink:href="#_1"/></g></svg>