<svg xmlns="http://www.w3.org/2000/svg" xmlns:xlink="http://www.w3.org/1999/xlink" viewBox="0 0 352 220"><defs><style>.cls-1{fill:#e0e0e0;opacity:0;}.cls-2{fill:#e5f3f2;}.cls-3,.cls-6{fill:#fff;}.cls-4{fill:none;}.cls-4,.cls-5,.cls-6{stroke:#00684d;stroke-miterlimit:10;stroke-width:4.87px;}.cls-5{fill:#b2dcd7;}</style><symbol id="_5" data-name="5" viewBox="0 0 352 220"><rect class="cls-1" width="352" height="220"/><circle class="cls-2" cx="176" cy="112.71" r="70.55" transform="translate(-28.15 157.46) rotate(-45)"/><polygon class="cls-3" points="173.57 88.38 132.21 88.38 132.21 95.68 151.67 115.14 151.67 124.87 195.46 124.87 195.46 115.14 214.92 95.68 214.92 88.38 173.57 88.38"/><polyline class="cls-4" points="151.67 115.14 132.21 95.68 132.21 88.38 173.57 88.38 214.92 88.38 214.92 95.68 195.46 115.14"/><line class="cls-4" x1="151.67" y1="124.87" x2="151.67" y2="100.55"/><line class="cls-4" x1="195.46" y1="124.87" x2="195.46" y2="100.55"/><path class="cls-5" d="M195.46,88.38V73.24c0-6.55-16.66-11.62-21.89-11.62s-21.9,5.07-21.9,11.62V88.38Z"/><path class="cls-6" d="M174.78,63.46c6.27,0,10.95-5.12,10.95-11.45V48.19c0-6.32-4.68-11.45-10.95-11.45s-10.94,5.13-10.94,11.45V52C163.84,58.34,168.52,63.46,174.78,63.46Z"/><path class="cls-3" d="M210.06,141.9v-7.05a12.17,12.17,0,1,0-24.33,0,12.17,12.17,0,1,0-24.33,0,12.16,12.16,0,1,0-24.32,0v7.05a12.24,12.24,0,0,0-12.17,12.41v4.62h97.31v-4.62A12.24,12.24,0,0,0,210.06,141.9Z"/><path class="cls-4" d="M161.4,141.9v-7.05a12.16,12.16,0,1,0-24.32,0v7.05"/><path class="cls-4" d="M185.73,141.9v-7.05a12.17,12.17,0,1,0-24.33,0v7.05"/><path class="cls-4" d="M210.06,141.9v-7.05a12.17,12.17,0,1,0-24.33,0v7.05"/><path class="cls-4" d="M149.24,158.93v-4.62a12.17,12.17,0,1,0-24.33,0v4.62"/><path class="cls-4" d="M173.57,158.93v-4.62a12.17,12.17,0,1,0-24.33,0v4.62"/><path class="cls-4" d="M197.89,158.93v-4.62a12.16,12.16,0,1,0-24.32,0v4.62"/><path class="cls-4" d="M222.22,158.93v-4.62a12.17,12.17,0,1,0-24.33,0v4.62"/><line class="cls-5" x1="117.62" y1="161.36" x2="231.95" y2="161.36"/></symbol></defs><title>system_ico_06</title><g id="コンテンツ"><use width="352" height="220" xlink:href="#_5"/></g></svg>