<svg xmlns="http://www.w3.org/2000/svg" xmlns:xlink="http://www.w3.org/1999/xlink" viewBox="0 0 352 220"><defs><style>.cls-1{fill:#e0e0e0;opacity:0;}.cls-2,.cls-8{fill:#e5f3f2;}.cls-3{fill:none;}.cls-3,.cls-5,.cls-6,.cls-8{stroke:#00684d;stroke-miterlimit:10;stroke-width:4.87px;}.cls-4,.cls-5{fill:#fff;}.cls-6,.cls-7{fill:#b2dcd7;}</style><symbol id="_4" data-name="4" viewBox="0 0 352 220"><rect class="cls-1" width="352" height="220"/><circle class="cls-2" cx="165.05" cy="100.27" r="64.47"/><line class="cls-3" x1="227.09" y1="150.14" x2="227.09" y2="181.76"/><line class="cls-3" x1="176" y1="181.76" x2="176" y2="150.14"/><rect class="cls-4" x="151.67" y="65" width="94.88" height="77.85"/><polyline class="cls-3" points="151.67 96.62 151.67 65 246.55 65 246.55 142.84 151.67 142.84 151.67 123.38"/><path class="cls-5" d="M126.13,96c6.27,0,11-5.13,11-11.45V80.76c0-6.33-4.68-11.45-11-11.45s-10.95,5.12-10.95,11.45v3.82C115.18,90.9,119.86,96,126.13,96Z"/><path class="cls-6" d="M176,103.92H120.05c-11.55,0-19.46,3.68-19.46,14.59v21.9a9.93,9.93,0,0,0,9.73,9.73h31.62V116.08h21.9C171.18,116.08,176,109.32,176,103.92Z"/><rect class="cls-7" x="112.75" y="118.51" width="29.19" height="65.68"/><line class="cls-3" x1="141.94" y1="118.51" x2="141.94" y2="184.2"/><line class="cls-3" x1="127.35" y1="145.27" x2="127.35" y2="184.2"/><line class="cls-3" x1="112.75" y1="118.51" x2="112.75" y2="184.2"/><polyline class="cls-3" points="161.4 130.68 178.43 130.68 185.73 120.95 200.33 120.95 214.92 96.62 224.65 96.62 231.95 84.46 236.82 84.46"/><line class="cls-3" x1="168.7" y1="181.76" x2="183.3" y2="181.76"/><line class="cls-3" x1="219.79" y1="181.76" x2="234.38" y2="181.76"/><rect class="cls-8" x="146.81" y="52.83" width="104.61" height="17.03"/></symbol></defs><title>system_ico_05</title><g id="コンテンツ"><use width="352" height="220" xlink:href="#_4"/></g></svg>