<?xml version="1.0" encoding="utf-8"?>
<!-- Generator: Adobe Illustrator 24.0.0, SVG Export Plug-In . SVG Version: 6.00 Build 0)  -->
<svg version="1.1" id="レイヤー_1" xmlns="http://www.w3.org/2000/svg" xmlns:xlink="http://www.w3.org/1999/xlink" x="0px"
	 y="0px" viewBox="0 0 500 90" style="enable-background:new 0 0 500 90;" xml:space="preserve">
<style type="text/css">
	.st0{opacity:0.25;}
	.st1{fill:url(#SVGID_1_);}
	.st2{fill:url(#SVGID_2_);}
	.st3{fill:url(#SVGID_3_);}
	.st4{fill:url(#SVGID_4_);}
</style>
<title>what_h_en</title>
<g id="コンテンツ">
	<g class="st0">
		
			<linearGradient id="SVGID_1_" gradientUnits="userSpaceOnUse" x1="68.32" y1="47.015" x2="433.84" y2="47.015" gradientTransform="matrix(1 0 0 -1 0 92)">
			<stop  offset="0" style="stop-color:#64B3F4"/>
			<stop  offset="1" style="stop-color:#C2E59C"/>
		</linearGradient>
		<path class="st1" d="M187,2.6l-20.3,84.8h-25.4l-13.6-56.8L114,87.4H88.6L68.3,2.6h22.3L101.6,64l14.9-61.4h22.4L153.8,64l11-61.4
			L187,2.6z"/>
		
			<linearGradient id="SVGID_2_" gradientUnits="userSpaceOnUse" x1="68.32" y1="47.01" x2="433.84" y2="47.01" gradientTransform="matrix(1 0 0 -1 0 92)">
			<stop  offset="0" style="stop-color:#64B3F4"/>
			<stop  offset="1" style="stop-color:#C2E59C"/>
		</linearGradient>
		<path class="st2" d="M271.1,2.6v84.8h-20.6V52h-32.2v35.4h-20.5V2.6h20.5v32.9h32.2V2.6H271.1z"/>
		
			<linearGradient id="SVGID_3_" gradientUnits="userSpaceOnUse" x1="68.32" y1="46.71" x2="433.84" y2="46.71" gradientTransform="matrix(1 0 0 -1 0 92)">
			<stop  offset="0" style="stop-color:#64B3F4"/>
			<stop  offset="1" style="stop-color:#C2E59C"/>
		</linearGradient>
		<path class="st3" d="M337.8,71.9H306l-5.3,15.5h-21.6l31.1-84.2h23.6L365,87.4h-21.9L337.8,71.9z M332.6,56.3L322,25.1l-10.7,31.2
			H332.6z"/>
		
			<linearGradient id="SVGID_4_" gradientUnits="userSpaceOnUse" x1="68.32" y1="47.01" x2="433.84" y2="47.01" gradientTransform="matrix(1 0 0 -1 0 92)">
			<stop  offset="0" style="stop-color:#64B3F4"/>
			<stop  offset="1" style="stop-color:#C2E59C"/>
		</linearGradient>
		<path class="st4" d="M433.8,2.6v16.3h-23v68.5h-20.7V18.9h-22.8V2.6H433.8z"/>
	</g>
</g>
</svg>
