<?xml version="1.0" encoding="utf-8"?>
<!-- Generator: Adobe Illustrator 24.0.0, SVG Export Plug-In . SVG Version: 6.00 Build 0)  -->
<svg version="1.1" id="レイヤー_1" xmlns="http://www.w3.org/2000/svg" xmlns:xlink="http://www.w3.org/1999/xlink" x="0px"
	 y="0px" viewBox="0 0 500 90" style="enable-background:new 0 0 500 90;" xml:space="preserve">
<style type="text/css">
	.st0{opacity:0.25;}
	.st1{fill:url(#SVGID_1_);}
	.st2{fill:url(#SVGID_2_);}
	.st3{fill:url(#SVGID_3_);}
</style>
<title>who_h_en</title>
<g id="コンテンツ">
	<g class="st0">
		
			<linearGradient id="SVGID_1_" gradientUnits="userSpaceOnUse" x1="99.94" y1="46.76" x2="400.06" y2="46.76" gradientTransform="matrix(1 0 0 -1 0 92)">
			<stop  offset="0" style="stop-color:#64B3F4"/>
			<stop  offset="1" style="stop-color:#C2E59C"/>
		</linearGradient>
		<path class="st1" d="M218.6,2.8l-20.3,84.8h-25.4l-13.6-56.8l-13.7,56.8h-25.4L99.9,2.8h22.3l10.9,61.4l14.9-61.4h22.4l14.9,61.4
			l11-61.4L218.6,2.8z"/>
		
			<linearGradient id="SVGID_2_" gradientUnits="userSpaceOnUse" x1="99.94" y1="46.76" x2="400.06" y2="46.76" gradientTransform="matrix(1 0 0 -1 0 92)">
			<stop  offset="0" style="stop-color:#64B3F4"/>
			<stop  offset="1" style="stop-color:#C2E59C"/>
		</linearGradient>
		<path class="st2" d="M302.7,2.8v84.8h-20.6V52.3h-32.2v35.4h-20.5V2.8h20.5v32.9h32.2V2.8H302.7z"/>
		
			<linearGradient id="SVGID_3_" gradientUnits="userSpaceOnUse" x1="99.94" y1="47.0002" x2="400.06" y2="47.0002" gradientTransform="matrix(1 0 0 -1 0 92)">
			<stop  offset="0" style="stop-color:#64B3F4"/>
			<stop  offset="1" style="stop-color:#C2E59C"/>
		</linearGradient>
		<path class="st3" d="M379,7.1c6.5,3.7,11.8,9,15.4,15.5c3.8,6.8,5.8,14.6,5.6,22.4c0.1,7.9-1.8,15.6-5.7,22.4
			c-3.7,6.5-9,11.9-15.5,15.5c-13.5,7.4-29.8,7.4-43.3,0c-6.5-3.7-11.8-9.1-15.5-15.5c-3.9-6.8-5.8-14.6-5.7-22.4
			c-0.1-7.8,1.8-15.6,5.7-22.4c3.7-6.5,9-11.8,15.5-15.5C349.1-0.4,365.5-0.4,379,7.1z M341.2,27.1c-4,4.4-5.9,10.3-5.9,17.8
			c0,7.5,2,13.4,5.9,17.8c4,4.4,9.3,6.6,16,6.6c6.7,0,12-2.2,16-6.6c4-4.4,6-10.3,6-17.8c0-7.4-2-13.4-5.9-17.8s-9.3-6.6-16-6.6
			S345.2,22.7,341.2,27.1L341.2,27.1z"/>
	</g>
</g>
</svg>
