<?xml version="1.0" encoding="utf-8"?>
<!-- Generator: Adobe Illustrator 24.0.0, SVG Export Plug-In . SVG Version: 6.00 Build 0)  -->
<svg version="1.1" id="レイヤー_1" xmlns="http://www.w3.org/2000/svg" xmlns:xlink="http://www.w3.org/1999/xlink" x="0px"
	 y="0px" viewBox="0 0 500 90" style="enable-background:new 0 0 500 90;" xml:space="preserve">
<style type="text/css">
	.st0{opacity:0.25;}
	.st1{fill:url(#SVGID_1_);}
	.st2{fill:url(#SVGID_2_);}
	.st3{fill:url(#SVGID_3_);}
</style>
<title>why_h_en</title>
<g id="コンテンツ">
	<g class="st0">
		
			<linearGradient id="SVGID_1_" gradientUnits="userSpaceOnUse" x1="106.3" y1="47.12" x2="396.58" y2="47.12" gradientTransform="matrix(1 0 0 -1 0 92)">
			<stop  offset="0" style="stop-color:#64B3F4"/>
			<stop  offset="1" style="stop-color:#C2E59C"/>
		</linearGradient>
		<path class="st1" d="M225,2.5l-20.3,84.8h-25.4l-13.6-56.8L152,87.3h-25.4L106.3,2.5h22.3l10.9,61.4l14.9-61.4h22.4l14.9,61.4
			l11-61.4L225,2.5z"/>
		
			<linearGradient id="SVGID_2_" gradientUnits="userSpaceOnUse" x1="106.3" y1="47.12" x2="396.58" y2="47.12" gradientTransform="matrix(1 0 0 -1 0 92)">
			<stop  offset="0" style="stop-color:#64B3F4"/>
			<stop  offset="1" style="stop-color:#C2E59C"/>
		</linearGradient>
		<path class="st2" d="M309.1,2.5v84.8h-20.6V51.9h-32.2v35.4h-20.5V2.5h20.5v32.9h32.2V2.5H309.1z"/>
		
			<linearGradient id="SVGID_3_" gradientUnits="userSpaceOnUse" x1="106.3" y1="47.12" x2="396.58" y2="47.12" gradientTransform="matrix(1 0 0 -1 0 92)">
			<stop  offset="0" style="stop-color:#64B3F4"/>
			<stop  offset="1" style="stop-color:#C2E59C"/>
		</linearGradient>
		<path class="st3" d="M396.6,2.5l-29.4,56.6v28.2h-20.6V59.1L317.1,2.5h23.5L357,37l16.3-34.5H396.6z"/>
	</g>
</g>
</svg>
